<svg width="3378" height="410" viewBox="0 0 3378 410" fill="none" xmlns="http://www.w3.org/2000/svg">
<path d="M1515.57 240.811C1510.3 241.541 1509.59 245.811 1507.85 248.821C1497.02 267.571 1486 286.221 1475.85 305.341C1470.34 315.731 1462.33 320.181 1451.05 320.891C1439.63 321.611 1428.51 319.821 1417.34 318.171C1410.59 317.181 1406.84 312.121 1403.74 306.781C1393.1 288.471 1382.68 270.031 1372.13 251.661C1369.88 247.741 1368.21 243.281 1363.18 240.491C1360.43 246.021 1361.51 251.231 1361.49 256.171C1361.4 296.671 1361.47 337.171 1361.49 377.661C1361.49 381.431 1361.61 385.201 1361.4 388.961C1360.78 400.041 1358.78 402.621 1348.1 402.841C1327.86 403.251 1307.6 403.281 1287.36 402.881C1276.64 402.671 1274.66 400.081 1274.06 389.041C1273.91 386.221 1274 383.391 1274 380.571C1274.02 277.911 1274.03 175.251 1274.07 72.6006C1274.07 50.1806 1274.64 49.6207 1297.01 49.5307C1312.55 49.4707 1328.11 50.0306 1343.62 49.4106C1355.6 48.9306 1362.64 53.9006 1367.92 64.5206C1388.25 105.411 1409.14 146.031 1430.03 186.641C1432.46 191.371 1433.18 199.251 1439.71 199.021C1445.09 198.841 1446.04 191.541 1448.32 187.061C1469.47 145.531 1490.55 103.981 1511.45 62.3306C1515.42 54.4206 1520.96 49.6406 1530.04 49.6406C1549.82 49.6306 1569.6 49.3806 1589.37 49.7406C1599.82 49.9306 1601.49 52.0106 1602.2 62.2706C1602.4 65.0806 1602.32 67.9206 1602.32 70.7406C1602.32 173.871 1602.32 277.001 1602.28 380.121C1602.28 402.611 1601.86 403.001 1579.32 403.071C1563.78 403.121 1548.24 403.251 1532.7 402.961C1519.26 402.711 1517.12 400.671 1517.07 387.121C1516.91 343.331 1517.09 299.531 1517 255.741C1516.99 250.801 1518.12 245.561 1515.57 240.801V240.811Z" fill="black"/>
<path d="M966.1 225.15C966.1 174.79 966.1 124.42 966.1 74.0597C966.1 70.7697 965.99 67.4597 966.16 64.1797C966.76 52.4297 968.861 49.7197 980.361 49.6897C1027.9 49.5797 1075.59 47.5397 1122.93 50.6397C1173.5 53.9497 1212.96 84.8497 1223.53 135.09C1233.2 181.03 1223.93 217.23 1182.05 248.01C1171.15 256.02 1170.37 257.71 1176.79 270.14C1196.22 307.76 1216.1 345.16 1235.6 382.75C1245.1 401.05 1243.83 402.91 1222.83 403.01C1202.12 403.1 1181.4 402.74 1160.7 403.2C1149.94 403.44 1143.75 399.63 1139.13 389.34C1123.33 354.15 1106.45 319.44 1089.95 284.56C1086.9 278.11 1083.82 272.08 1075.28 271.01C1058.26 268.88 1053.92 272.17 1053.85 289.25C1053.73 320.79 1053.87 352.32 1053.79 383.86C1053.75 401.51 1052.35 402.88 1034.29 403.05C1019.23 403.19 1004.17 403.12 989.1 403.07C966.2 402.99 966.021 402.79 966.031 380.47C966.031 328.69 966.031 276.92 966.031 225.14H966.071L966.1 225.15ZM1085.85 199.27C1085.85 199.27 1085.85 199.25 1085.85 199.24C1092.43 199.24 1099.06 199.74 1105.59 199.14C1124.63 197.4 1140.36 181.05 1140.87 162.99C1141.38 145.07 1129.12 130.99 1109.02 127.63C1094.12 125.14 1078.98 126.45 1063.95 126.76C1057.77 126.89 1054.25 130.37 1054.19 136.5C1054.02 153.9 1054.02 171.3 1054.14 188.7C1054.18 195.46 1057.83 199.15 1064.69 199.24C1071.74 199.33 1078.8 199.26 1085.86 199.26L1085.85 199.27Z" fill="black"/>
<path d="M2350.41 225.78C2350.41 175.87 2350.41 125.96 2350.41 76.0497C2350.41 73.2197 2350.39 70.3997 2350.42 67.5697C2350.64 50.8197 2351.6 49.7297 2367.84 49.5797C2382.91 49.4397 2397.97 49.4997 2413.04 49.5397C2442.23 49.6197 2471.49 48.4997 2500.6 50.1397C2543.49 52.5497 2577.68 71.3797 2597.4 110.8C2621.68 159.34 2611.19 217.88 2562.58 249.1C2552.4 255.64 2552.57 256.01 2558.18 266.86C2579.6 308.25 2601.07 349.61 2622.5 390.99C2626.87 399.44 2625.66 402.59 2616.46 402.73C2591.52 403.13 2566.56 402.93 2541.61 402.75C2531.54 402.68 2525.23 397.14 2521.09 388.14C2509.28 362.49 2497.23 336.95 2485.18 311.41C2480.36 301.19 2475.51 290.97 2470.23 281C2465.26 271.62 2450.23 267.43 2440.82 272.24C2436.25 274.57 2435.83 278.78 2435.76 283.06C2435.6 292.95 2435.6 302.83 2435.59 312.72C2435.57 337.2 2435.72 361.69 2435.54 386.17C2435.43 400.87 2433.62 402.79 2419.45 403.01C2402.03 403.28 2384.61 403.25 2367.19 403C2352.21 402.79 2350.49 400.96 2350.46 385.4C2350.37 332.19 2350.42 278.99 2350.42 225.78H2350.41ZM2435.81 162.51C2435.81 171.44 2435.78 180.38 2435.81 189.31C2435.84 195.45 2438.67 199.25 2445.08 199.26C2460.12 199.26 2475.26 200.11 2490.17 198.68C2510.27 196.76 2522.87 181.94 2522.84 162.78C2522.81 143.7 2510.05 129.07 2489.81 127.21C2475.35 125.88 2460.69 126.74 2446.12 126.66C2439.16 126.62 2435.78 130.19 2435.8 137.11C2435.82 145.57 2435.8 154.04 2435.8 162.5L2435.81 162.51Z" fill="black"/>
<path d="M896.88 402.85C886.52 402.85 876.16 403.01 865.81 402.8C856.8 402.61 850.87 398.39 848.48 389.23C846.11 380.13 843.2 371.16 840.35 362.18C836.94 351.44 835.4 349.9 824.48 349.82C796.23 349.62 767.98 350 739.72 349.78C731.3 349.71 726.63 353.21 724.29 361.15C721.63 370.18 718.01 378.93 715.47 387.98C712.67 398 706.68 403.05 696.18 402.99C675.46 402.88 654.74 403.25 634.03 402.83C622.56 402.59 621.13 399.98 625.18 388.74C643.55 337.82 662.07 286.96 680.49 236.06C701.16 178.96 722 121.93 742.2 64.6602C745.64 54.8902 750.62 50.4102 760.95 48.8602C776.16 46.5702 790.98 48.2402 805.95 49.8202C812.23 50.4802 816.44 53.7602 818.74 59.4602C821.55 66.4402 824.28 73.4702 826.84 80.5502C849.73 143.86 872.54 207.2 895.43 270.51C909.2 308.58 923.07 346.61 936.89 384.67C937.53 386.44 938.15 388.23 938.61 390.05C940.93 399.34 939.28 402.13 929.36 402.67C918.56 403.26 907.71 402.8 896.88 402.8C896.88 402.81 896.88 402.82 896.88 402.84V402.85ZM785.05 277.91C790.21 277.91 795.43 278.38 800.53 277.81C811.24 276.61 812.81 274.27 809.68 264.15C803.17 243.05 796.38 222.04 789.68 201C788.97 198.77 788.28 196.47 787.15 194.44C784.79 190.21 781.65 190.43 780.18 194.71C771.91 218.69 763.95 242.78 755.95 266.86C753.94 272.9 757.24 275.42 762.62 276.72C770.03 278.51 777.54 278.3 785.05 277.91Z" fill="black"/>
<path d="M3335.25 402.991C3324.9 402.981 3314.53 403.321 3304.19 402.891C3292.39 402.401 3289.59 399.921 3286.05 388.871C3283.33 380.351 3280.89 371.741 3277.88 363.331C3273.55 351.211 3272.03 349.941 3259.63 349.851C3232.33 349.641 3205.03 349.641 3177.73 349.871C3166.21 349.971 3165.1 350.931 3161.4 361.581C3158.16 370.911 3155.21 380.351 3152.4 389.831C3150.12 397.521 3145.18 402.051 3137.28 402.441C3115.66 403.531 3093.98 404.231 3072.43 401.841C3060.22 400.491 3059.07 398.191 3063.47 385.871C3074.87 353.971 3086.69 322.221 3098.25 290.381C3124.6 217.851 3150.89 145.301 3177.24 72.7606C3179 67.9006 3180.81 63.0406 3182.94 58.3406C3184.98 53.8406 3188.4 50.9706 3193.56 50.0206C3210.9 46.8306 3228.2 47.6006 3245.51 50.0806C3253.37 51.2106 3255.94 57.2206 3258.24 63.6006C3266.22 85.7306 3274.26 107.851 3282.26 129.971C3312.98 214.941 3343.7 299.911 3374.42 384.871C3374.9 386.201 3375.5 387.481 3375.94 388.821C3379.49 399.791 3377.88 402.451 3366.3 402.911C3355.96 403.321 3345.59 403.001 3335.24 402.991H3335.25ZM3220.1 278.611C3227.11 278.301 3232.31 278.451 3237.39 277.771C3247.72 276.371 3249.69 273.661 3246.68 263.821C3239.97 241.881 3232.84 220.071 3225.83 198.221C3225.26 196.451 3224.61 194.621 3223.56 193.111C3221.26 189.791 3218.44 190.521 3217.22 193.681C3215.21 198.891 3214.24 204.501 3212.49 209.821C3206.48 228.041 3200.26 246.201 3194.25 264.421C3191.04 274.171 3191.4 274.881 3201 276.411C3207.92 277.511 3214.93 278.031 3220.09 278.601L3220.1 278.611Z" fill="black"/>
<path d="M1991.35 402.99C1980.53 402.99 1969.71 402.97 1958.89 402.99C1951.9 403.01 1947.44 399.94 1945.44 393.01C1942.57 383.07 1939.46 373.19 1936.22 363.37C1932.4 351.78 1930.32 349.96 1917.97 349.84C1890.68 349.58 1863.39 349.9 1836.11 349.65C1827.18 349.57 1822.13 353.58 1819.57 361.85C1816.78 370.84 1813.47 379.66 1810.68 388.64C1807.79 397.93 1801.67 402.74 1792.01 402.8C1771.31 402.92 1750.6 403.24 1729.92 402.78C1718.68 402.53 1716.8 399.15 1720.7 388.38C1745.56 319.84 1770.57 251.36 1795.43 182.82C1808.1 147.89 1820.58 112.9 1833.13 77.9201C1834.4 74.3801 1835.47 70.7601 1836.8 67.2401C1843.09 50.6801 1844.5 49.6902 1862.63 49.5202C1873.45 49.4202 1884.29 49.9201 1895.09 49.4301C1905.99 48.9301 1912.63 52.9101 1916.19 63.6901C1922.53 82.8801 1929.85 101.76 1936.76 120.77C1966.02 201.22 1995.3 281.67 2024.52 362.13C2027.89 371.41 2031.23 380.73 2034.08 390.18C2036.93 399.63 2035.2 402.28 2025.22 402.76C2013.95 403.3 2002.64 402.88 1991.35 402.88C1991.35 402.91 1991.35 402.94 1991.35 402.98V402.99ZM1879.6 191.91C1876.57 192.32 1875.62 194.67 1874.89 196.8C1866.77 220.37 1858.63 243.94 1850.79 267.61C1848.57 274.31 1850.46 277.29 1858.04 277.73C1869.76 278.41 1881.57 278.55 1893.28 277.84C1905.77 277.08 1907.94 273.42 1904.25 261.41C1898.18 241.62 1891.97 221.88 1885.58 202.19C1884.36 198.42 1884.3 193.63 1879.6 191.9V191.91Z" fill="black"/>
<path d="M2791.6 226.15C2791.6 207.79 2790.86 189.39 2791.75 171.08C2793.87 127.54 2811.45 92.0404 2848.6 67.6704C2895.67 36.7804 2968.32 39.6604 3012.02 74.9004C3035.55 93.8804 3049.52 119.29 3055.16 149C3056.93 158.31 3055.46 160.11 3045.96 160.27C3024.31 160.64 3002.65 160.27 2981 160.54C2972.43 160.65 2968.45 155.8 2965.34 148.83C2957 130.14 2942.04 122.71 2922.11 123.85C2902.87 124.95 2889.25 135.08 2883.31 153.44C2879.08 166.51 2877.26 180.18 2877.02 193.77C2876.52 221.97 2875.15 250.23 2879.1 278.37C2880.02 284.93 2881.46 291.28 2883.08 297.67C2888.04 317.32 2902.03 326.34 2920.72 328.73C2938.81 331.05 2952.79 323.5 2962.34 307.96C2964.06 305.16 2965.75 302.28 2966.94 299.24C2969.27 293.25 2973.36 290.24 2979.81 290.25C3001.94 290.28 3024.07 289.98 3046.18 290.37C3055.67 290.54 3058.14 293.92 3055.95 302.91C3042.49 358.2 3004.09 396.24 2947.66 403.8C2920.8 407.39 2894.85 405.98 2870.08 395.47C2819.91 374.18 2795.04 334.67 2791.65 281.2C2790.49 262.91 2791.47 244.49 2791.47 226.13H2791.6V226.15Z" fill="black"/>
<path d="M409.22 225.171C409.22 174.311 409.22 123.441 409.22 72.5806C409.22 69.2806 409.11 65.9806 409.29 62.6906C409.88 52.1306 411.55 50.3906 421.65 49.6306C423.99 49.4506 426.36 49.5106 428.71 49.5106C495.59 49.5306 562.47 49.5506 629.34 49.5806C630.28 49.5806 631.22 49.5805 632.17 49.6005C648.53 49.9005 649.66 50.9905 649.75 67.4805C649.83 81.6105 649.87 95.7406 649.74 109.871C649.6 124.791 648.37 126.181 633.68 126.231C596 126.371 558.32 126.261 520.65 126.291C504.917 126.304 497.033 134.414 497 150.621C496.99 156.741 496.95 162.871 496.98 168.991C497.06 187.801 497.43 188.271 515.7 188.311C544.9 188.381 574.1 188.311 603.3 188.301C619.18 188.294 627.136 196.361 627.17 212.501C627.19 225.221 627.33 237.941 627.03 250.651C626.73 263.331 625.69 264.121 613.46 265.391C601.74 266.611 590.15 266.941 578.3 265.821C554.8 263.611 531.339 268.111 507.769 267.641C499.289 267.471 497.53 269.971 497.14 279.171C496.72 289.041 496.94 298.951 496.94 308.841C496.94 334.741 497.09 360.651 496.94 386.551C496.85 400.941 495.039 402.771 480.519 402.991C462.159 403.261 443.78 403.311 425.42 403.061C411.26 402.871 409.309 400.861 409.269 386.251C409.139 332.561 409.22 278.871 409.23 225.181L409.22 225.171Z" fill="black"/>
<path d="M2070.87 225.371C2070.87 173.601 2070.87 121.831 2070.88 70.0606C2070.88 66.3006 2070.91 62.5307 2071.16 58.7807C2071.53 53.2207 2074.69 50.2706 2080.19 49.8906C2083.47 49.6606 2086.77 49.5606 2090.06 49.5606C2156.89 49.5606 2223.72 49.5206 2290.56 49.6106C2311.36 49.6406 2311.38 49.8107 2311.4 71.2807C2311.4 81.6307 2311.4 91.9907 2311.38 102.341C2311.34 126.131 2311.31 126.201 2288.13 126.221C2252.83 126.251 2217.53 126.221 2182.23 126.221C2177.99 126.221 2173.76 126.341 2169.52 126.391C2162.77 126.461 2158.87 129.481 2158.86 136.591C2158.84 150.241 2158.49 163.891 2158.91 177.531C2159.18 186.151 2161.12 187.651 2170.38 188.211C2176.48 188.581 2182.61 188.381 2188.73 188.371C2216.03 188.371 2243.33 188.271 2270.62 188.351C2287.87 188.401 2288.64 189.231 2288.72 206.931C2288.79 221.051 2288.85 235.171 2288.64 249.291C2288.43 263.681 2287.68 265.041 2273.65 265.311C2247.8 265.811 2221.94 265.401 2196.08 265.361C2188.08 265.351 2180.09 265.401 2172.15 266.741C2159.73 268.831 2158.84 269.381 2158.76 281.931C2158.56 313.461 2158.67 345.001 2158.66 376.531C2158.65 394.197 2149.88 403.061 2132.34 403.121C2117.28 403.151 2102.21 403.281 2087.16 402.981C2072.84 402.701 2070.9 400.781 2070.87 386.351C2070.75 332.701 2070.82 279.041 2070.82 225.391H2070.86L2070.87 225.371Z" fill="black"/>
<path d="M2661.49 225.14C2661.49 174.3 2661.49 123.46 2661.49 72.6197C2661.49 68.3797 2661.56 64.1496 2661.68 59.9196C2661.85 53.8696 2664.66 49.8797 2671.01 49.8397C2693.13 49.7197 2715.25 49.7597 2737.36 49.9297C2742.84 49.9697 2746.05 53.1697 2746.45 58.7397C2746.72 62.4897 2746.79 66.2597 2746.79 70.0197C2746.78 173.11 2746.76 276.2 2746.7 379.3C2746.69 401.9 2745.48 403.05 2722.62 403.13C2707.56 403.18 2692.49 403.25 2677.43 402.94C2663.2 402.65 2661.39 400.73 2661.36 386.13C2661.27 332.47 2661.33 278.8 2661.33 225.14H2661.48H2661.49Z" fill="black"/>
<path d="M43.0296 409.37C37.8596 403.22 39.1697 397.36 39.1497 391.94C38.9997 359.46 38.6298 326.97 39.2498 294.49C39.4798 282.55 35.1499 274.67 24.8099 269.56C24.3899 269.35 23.9999 269.07 23.5999 268.83C1.80991 255.54 -1.9302 247.4 1.9798 222.58C2.8098 217.29 5.22962 215.95 9.54962 218.86C18.8996 225.16 29.61 229.64 37.43 237.95C42.29 243.11 45.73 242.59 50.18 237.93C58.11 229.63 68.92 225.43 78.2 219.04C84.16 214.94 86.3797 216.38 87.1697 223.51C87.3797 225.37 87.0399 227.31 87.3299 229.15C90.2599 247.95 83.1798 261.15 65.4798 268.47C64.6198 268.83 63.8596 269.45 63.0096 269.84C51.4696 275.09 46.7297 283.41 47.0897 296.66C47.9797 328.65 47.4499 360.68 47.2899 392.69C47.2599 398.03 48.7798 404 43.0198 409.38L43.0296 409.37Z" fill="black"/>
<path d="M254.25 407.12C249.55 400.82 250.82 395.52 250.79 390.64C250.62 359.13 250.121 327.61 250.901 296.12C251.221 283.16 246.98 274.46 235.59 268.81C207.07 254.64 211.55 252.51 211.06 223.07C211.01 220.36 210.541 217.38 213.871 214.47C224.261 221.64 236.291 226.9 245.951 235.69C251.551 240.78 255.881 241.32 261.481 235.78C269.251 228.1 279.481 223.89 288.571 218.06C292.821 215.33 296.071 216.75 296.191 221.98C296.391 230.43 296.32 238.9 295.84 247.34C295.56 252.31 292.381 256.02 288.321 258.73C282.461 262.65 276.76 266.94 270.51 270.12C260.41 275.25 256.78 283.13 256.89 294.16C257.2 326.13 256.99 358.11 256.89 390.09C256.88 395.15 257.75 400.39 254.25 407.11V407.12Z" fill="black"/>
<path d="M148.75 409.01C144.94 403.18 146.05 398.34 146.01 393.76C145.85 373.05 145.27 352.31 146.11 331.64C146.63 318.67 141.92 310.02 130.74 304.11C126.18 301.7 122.07 298.45 117.64 295.78C109.59 290.93 105.62 283.91 106.6 274.56C107.41 266.88 102.52 256.12 109.54 252.33C115.35 249.2 122.16 258.4 128.49 262.14C135.32 266.18 141.27 273.9 148.3 274.83C155.65 275.8 160.76 266.02 167.95 262.51C172.58 260.25 176.83 257.21 181.26 254.54C190.14 249.16 191.53 249.82 192.1 259.65C192.15 260.59 192.1 261.53 192.12 262.47C192.68 289.65 192.79 289.86 168.86 303.11C157.53 309.38 151.39 317.49 151.92 331.25C152.74 352.4 152.16 373.61 152.01 394.79C151.98 399.19 153.18 404.04 148.75 409.02V409.01Z" fill="black"/>
<path d="M1.9904 78.0699C1.9904 72.6099 1.69023 68.8299 2.06023 65.1099C2.69023 58.6799 5.36994 56.8499 10.0099 60.4499C19.2599 67.6299 30.9601 71.3799 38.6301 80.6199C42.4201 85.1899 45.7003 84.2799 49.1003 80.6099C57.2503 71.8199 68.4502 67.4999 78.0802 60.8699C84.1302 56.6999 86.69 58.0499 87.11 65.0399C87.55 72.5099 87.2101 80.0399 87.1301 87.5399C87.0501 94.9499 82.3603 99.6498 76.8903 103.47C66.9303 110.43 55.7403 115.62 47.1003 124.52C44.0303 127.68 41.1401 126.2 38.9001 123.1C34.0701 116.4 27.22 112.07 20.05 108.74C5.91997 102.19 -1.3296 92.3499 1.9904 78.0599V78.0699Z" fill="black"/>
<path d="M191.98 110.381C191.98 114.151 191.98 117.911 191.98 121.681C191.98 128.961 188.59 134.231 182.35 137.771C172.54 143.341 162.4 148.401 154.08 156.281C150.86 159.331 147.42 159.491 144.13 156.231C137.01 149.181 128.31 144.431 119.68 139.631C110.61 134.581 105.85 127.311 106.5 116.641C106.87 110.541 106.26 104.381 106.75 98.3006C107.25 92.1406 109.82 90.9706 115.14 94.4306C124.59 100.581 134.19 106.611 142.99 113.621C147.53 117.241 150.51 118.551 154.68 113.881C162.41 105.211 173.59 101.711 182.91 95.3907C189.71 90.7807 191.53 92.0706 192.08 100.491C192.29 103.771 192.12 107.081 192.12 110.371H192L191.98 110.381Z" fill="black"/>
<path d="M87.09 156.56C90.39 170.96 82.6302 180.45 69.6002 186.99C61.5502 191.03 54.44 196.32 48.17 202.8C45.63 205.43 42.5 206.86 39.84 203.15C33.54 194.38 24.1202 189.86 15.1002 184.98C5.2702 179.67 0.740204 172.16 1.8502 160.93C2.4002 155.35 1.65016 149.65 2.06016 144.04C2.52016 137.78 4.77009 136.5 10.2301 140.2C19.5201 146.5 30.5599 150.39 38.0699 159.1C42.3099 164.02 45.66 163.52 49.59 159.25C58.03 150.07 70.4503 146.74 79.7403 138.69C83.9903 135.01 86.6699 137.99 87.0299 142.72C87.3399 146.92 87.1002 151.16 87.1002 156.55L87.09 156.56Z" fill="black"/>
<path d="M211.27 74.7905C211.85 69.5705 208.5 62.2805 213.75 59.1705C219.38 55.8305 223.401 63.1006 228.201 65.4506C235.361 68.9606 242.031 73.4605 247.871 78.9705C252.191 83.0505 256.16 82.7805 260.02 78.6005C267.86 70.1105 278.63 66.0306 288.13 60.0806C293.45 56.7506 295.95 58.2006 296.29 64.5506C296.71 72.5006 296.48 80.5005 296.18 88.4705C295.92 95.2505 291.451 99.4406 286.201 102.951C276.871 109.181 266.43 113.801 258.6 122.251C255.87 125.201 252.73 124.941 250.08 121.921C244.36 115.411 236.861 111.231 229.361 107.561C215.431 100.751 207.98 91.0006 211.27 74.8006V74.7905Z" fill="black"/>
<path d="M192.13 192.601C195.26 205.841 187.7 215.141 174.21 221.501C166.99 224.901 160.37 229.531 154.5 235.061C150.69 238.651 147.02 238.651 143.51 234.771C136.71 227.241 127.63 223.121 119.03 218.311C110.4 213.481 105.62 206.441 106.66 196.431C107.5 188.311 102.12 177.271 109.82 172.861C115.76 169.461 121.89 179.841 128.77 182.631C136.62 185.811 141.71 196.351 149.45 195.681C156.32 195.081 162.51 187.291 169.12 182.871C173.42 179.991 177.9 177.391 182.36 174.761C190.23 170.131 191.55 170.901 192.11 180.311C192.17 181.251 192.13 182.191 192.13 183.131C192.13 185.481 192.13 187.841 192.13 192.611V192.601Z" fill="black"/>
<path d="M212.79 134.01C225.24 142.42 236.41 149.23 246.68 157.19C252.31 161.55 256.12 161.8 261.1 156.91C268.88 149.28 279.031 145 287.981 139.02C293.251 135.5 295.93 136.81 296.25 142.96C296.69 151.37 296.55 159.84 296.04 168.25C295.63 174.96 290.67 178.89 285.54 182.42C276.29 188.8 265.77 193.26 257.49 201.1C255.03 203.43 252.43 203.34 250.12 200.91C242.53 192.93 232.78 188.21 223.36 182.99C214.78 178.23 210.31 171.22 211.05 161.15C211.66 152.85 209.82 144.39 212.79 134.02V134.01Z" fill="black"/>
<path d="M270.92 27.6502C271.13 39.2902 264.93 47.0101 258.6 54.5601C255.62 58.1201 252.26 57.3801 248.89 54.3701C233.31 40.4701 233.16 17.1801 248.54 3.45015C252.48 -0.06985 255.971 -0.0398684 259.491 3.65013C266.161 10.6301 270.42 18.7502 270.92 27.6402V27.6502Z" fill="black"/>
<path d="M132.03 62.3997C132.45 52.0397 139.02 44.5297 145.28 36.9697C147.39 34.4097 150.09 35.0897 152.7 37.1097C169.44 50.0497 169.6 78.6697 152.97 91.4497C150.37 93.4497 147.63 93.9297 145.52 91.3597C138.64 82.9697 132.27 74.2497 132.03 62.3997Z" fill="black"/>
<path d="M27.2203 28.3403C27.0303 18.9003 33.2302 11.1803 39.3502 3.52031C41.9302 0.290309 44.9701 1.37032 47.9401 3.59032C65.0901 16.4303 64.8303 44.2703 47.4303 56.9403C44.7903 58.8603 41.9902 59.4803 40.0602 56.7903C34.1402 48.5303 26.8801 40.8003 27.2101 28.3303L27.2203 28.3403Z" fill="black"/>
</svg>
