<svg width="2107" height="624" viewBox="0 0 2107 624" fill="none" xmlns="http://www.w3.org/2000/svg">
<path d="M915.46 400.951C910.88 407.331 906.85 413.781 901.71 419.411C878.2 445.181 849.06 459.851 814.4 463.341C773.31 467.481 736.23 457.401 704.26 430.821C675.8 407.171 659.01 376.291 651.27 340.591C641.05 293.441 643.75 247.101 666.5 203.861C693.71 152.131 737.55 125.931 796.15 124.621C831 123.841 862.36 133.521 889.51 155.701C898.31 162.891 905.83 171.301 912.1 180.821C913.14 182.401 913.71 184.461 916.3 185.591C916.3 171.091 916.21 156.941 916.33 142.791C916.45 127.801 914.09 129.391 929.59 129.311C940.17 129.251 950.74 129.301 961.32 129.311C968.007 129.311 971.353 132.581 971.36 139.121C971.36 224.041 971.36 308.971 971.36 393.891C971.36 417.761 971.57 441.641 971.31 465.511C970.98 495.281 965.22 523.831 950.11 549.891C927.22 589.341 892.11 611.041 847.78 618.151C811.6 623.951 776.01 620.551 742.12 606.201C700.39 588.531 673.58 557.851 664.11 512.961C662.61 505.871 662.96 505.431 670.15 505.411C683.83 505.391 697.5 505.451 711.18 505.381C714.38 505.361 716.62 506.041 717.88 509.521C730.48 544.351 757.03 562.301 791.93 569.511C810.71 573.391 829.67 573.291 848.23 567.911C884.15 557.511 904.64 532.761 912.91 497.091C915.42 486.251 916.41 475.191 916.35 464.021C916.24 444.891 916.34 425.751 916.29 406.611C916.29 404.891 916.85 403.041 915.49 400.951H915.46ZM795 415.051C846.48 414.721 876.2 398.501 897.03 366.391C908.47 348.761 913.7 329.001 915.51 308.141C917.92 280.471 914.57 253.791 901.18 229.221C879.37 189.211 844.92 170.311 799.72 173.511C758.22 176.461 728.65 198.441 712.41 236.581C697.37 271.911 697.59 308.381 710.1 344.401C725.26 388.021 764.33 415.731 794.99 415.041L795 415.051Z" fill="black"/>
<path d="M1396.96 124.781C1436.09 124.421 1471.4 135.551 1501.71 160.711C1529.73 183.961 1546.52 214.131 1554.01 249.441C1563.7 295.091 1560.16 339.501 1538.02 381.181C1513.7 426.971 1474.67 453.071 1424.04 461.841C1390.98 467.561 1358.57 464.361 1327.64 450.751C1290.05 434.211 1263.67 406.421 1248.82 368.411C1229.59 319.191 1228.77 269.181 1249.04 220.231C1272.08 164.581 1315.36 134.151 1374.61 125.731C1377.13 125.371 1379.66 124.901 1382.2 124.821C1387.12 124.681 1392.05 124.781 1396.97 124.781H1396.96ZM1503.09 291.951C1503.28 283.771 1502.56 273.441 1500.6 263.211C1495.86 238.401 1485.74 216.411 1466.67 199.251C1445.23 179.961 1419.74 171.881 1391.21 173.211C1353.79 174.961 1324.69 191.331 1306.45 224.381C1288.26 257.351 1287.31 292.941 1293.86 329.011C1298.02 351.911 1307.78 372.291 1324.97 388.531C1346.09 408.491 1371.6 416.061 1400.18 414.721C1434.86 413.101 1462.6 398.451 1482.35 369.861C1498.02 347.181 1503.31 321.351 1503.09 291.951Z" fill="black"/>
<path d="M20.03 269.2C20.36 223.09 31.5001 179.8 54.1801 139.57C55.7501 136.78 56.15 134.43 54.79 131.4C47.98 116.12 49.97 101.67 60.47 88.8904C70.59 76.5804 84.12 72.4304 99.74 75.2704C102.91 75.8504 105.27 75.0804 107.67 72.9204C150.21 34.6504 200 11.8204 256.85 6.02037C327.85 -1.21963 392.28 16.9904 448.39 61.3104C501.94 103.61 534.7 158.88 546.24 226.24C553.94 271.15 549.5 315.17 534.29 358.07C532.93 361.91 533.19 364.71 535.25 368.21C543.96 383.02 541.65 402.78 530.09 415.53C518.33 428.5 499.34 432.32 482.97 425.02C467.43 418.09 458.19 401.44 459.9 383.46C461.49 366.71 473.94 352 491.08 349.17C499.14 347.84 501.82 343.97 503.73 337.11C526.53 255.3 511.6 181.48 455.87 117.05C419.25 74.7104 372.2 49.8604 316.81 42.3704C249.04 33.2004 188.67 51.3004 136.06 95.1004C131.66 98.7604 129.74 102.24 131.12 108.56C136.24 131.94 115.89 155.69 91.35 155.24C87.03 155.16 85.16 156.7 83.38 160.03C69.5 186.05 60.77 213.63 57.38 242.96C52.84 282.18 58.2901 319.95 73.0601 356.44C81.2601 376.68 92.68 395.05 106.05 412.28C114.97 423.78 109.55 438.77 95.59 441.52C88.7 442.88 82.93 440.39 78.63 435.01C49.45 398.5 30.8901 357.23 23.4301 311.07C21.1901 297.21 19.89 283.25 20.02 269.18L20.03 269.2ZM500.2 366.61C487.75 366.56 478.08 375.83 477.93 387.95C477.79 399.94 488.08 410.21 500.18 410.18C511.81 410.15 522.15 400.1 522.17 388.82C522.19 376.11 512.83 366.66 500.19 366.61H500.2ZM113.19 115.32C113.25 102.57 103.79 92.7404 91.55 92.8504C79.22 92.9604 69.6199 102.45 69.5699 114.59C69.5199 126.93 78.93 136.63 91.1 136.76C103.48 136.89 113.14 127.53 113.2 115.32H113.19Z" fill="black"/>
<path d="M0.579937 550.51C0.579937 541.76 0.519956 533.02 0.599956 524.27C0.699956 513.54 4.99996 507.45 15.1 504.38C55.72 492.01 96.36 479.72 137.03 467.49C145.68 464.89 154.32 465.5 162.81 468.57C199.31 481.77 235.83 494.94 272.33 508.16C281.99 511.66 291.5 511.25 301.25 508.22C354.68 491.63 408.16 475.21 461.62 458.71C465.34 457.56 468.98 456.82 472.86 458.09C478.67 459.98 482.92 463.4 483.95 469.64C484.92 475.5 482.09 479.93 477.46 483.14C467.12 490.3 456.68 497.31 446.26 504.36C392.69 540.65 339.01 576.77 285.65 613.37C274.3 621.15 264.02 622.01 251.54 616.01C211.8 596.89 171.67 578.58 131.72 559.9C122.33 555.51 112.95 555.02 103.08 558.4C74.8099 568.1 46.44 577.53 18.12 587.07C16.74 587.54 15.37 588.05 13.97 588.44C5.89995 590.68 1.00996 587.4 0.729961 578.96C0.409961 569.5 0.660015 560.01 0.660015 550.54H0.609966L0.579937 550.51Z" fill="black"/>
<path d="M305.85 288.31C301.24 293.36 296.88 298.67 291.98 303.43C264.1 330.52 235.03 356.21 202.48 377.7C196.07 381.93 195.84 381.83 193.65 374.26C181.07 330.71 189.9 291.91 219.36 257.55C237.8 236.04 260.45 219.93 285.04 206.46C324.95 184.6 367.45 169.48 411.74 159.25C415.66 158.35 418.15 158.07 417.42 163.47C411.39 208.26 401.21 251.97 383.65 293.75C372.34 320.65 358.11 345.84 337.64 366.94C311.17 394.22 279.02 407.73 240.7 404.92C233.46 404.39 226.29 402.82 219.1 401.64C217.71 401.41 215.74 401.33 215.3 399.91C214.72 398.04 216.76 397.18 217.93 396.15C241.6 375.46 263.24 352.83 282.4 327.91C291.69 315.83 300.36 303.3 307.33 289.71C306.83 289.25 306.34 288.79 305.84 288.33L305.85 288.31Z" fill="black"/>
<path d="M1676.98 317.95C1676.98 362.05 1676.98 406.16 1676.98 450.26C1676.98 455.834 1674.13 458.627 1668.42 458.64C1655.47 458.64 1642.52 458.4 1629.58 458.75C1624.02 458.9 1622.34 457.01 1622.37 451.55C1622.54 408.17 1622.46 364.8 1622.46 321.42C1622.46 275.67 1622.46 229.93 1622.46 184.18C1622.46 176.34 1622.33 176.22 1614.52 176.21C1605.4 176.19 1596.28 176.09 1587.17 176.24C1582.87 176.31 1580.79 174.86 1580.85 170.26C1581.01 158.6 1581.01 146.93 1580.85 135.27C1580.79 130.64 1582.94 129.26 1587.2 129.33C1596.86 129.47 1606.53 129.2 1616.19 129.43C1620.98 129.55 1622.62 127.67 1622.52 122.99C1622.19 107.32 1622.34 91.6503 1625.24 76.1703C1632.77 36.0103 1655.69 12.8503 1695.76 4.59025C1708.13 2.04025 1720.66 1.17026 1733.2 0.380258C1739.61 -0.0197417 1740.42 0.930256 1740.45 7.44026C1740.5 18.3703 1740.29 29.3102 1740.54 40.2402C1740.66 45.3602 1738.91 47.5303 1733.61 47.3503C1724.99 47.0603 1716.52 48.5202 1708.28 51.0202C1694.43 55.2302 1684.81 63.8903 1680.52 78.0003C1678.33 85.1903 1677.08 92.5202 1677.09 100.05C1677.1 107.7 1677.2 115.36 1676.93 123.01C1676.76 127.72 1678.53 129.48 1683.29 129.43C1700.43 129.25 1717.57 129.36 1734.72 129.37C1740.8 129.37 1743.84 132.4 1743.85 138.46C1743.85 148.67 1743.88 158.87 1743.84 169.08C1743.81 175.63 1743.28 176.17 1736.57 176.18C1719.25 176.22 1701.92 176.18 1684.6 176.2C1677.22 176.2 1677.01 176.42 1677.01 183.97C1677 228.62 1677.01 273.27 1677.01 317.93L1676.98 317.95Z" fill="black"/>
<path d="M1113.71 178.47C1122.14 165.91 1131.45 154.57 1143.4 145.59C1160.04 133.1 1179.02 126.76 1199.56 124.68C1203.72 124.26 1207.9 124 1212.08 123.75C1215.29 123.56 1216.65 125.15 1216.64 128.37C1216.58 144.41 1216.55 160.44 1216.65 176.48C1216.68 180.78 1214.07 180.98 1210.9 180.99C1198.5 181.03 1186.11 181.46 1173.97 184.3C1145.42 190.96 1127.48 208.77 1119.3 236.7C1115.27 250.44 1113.77 264.55 1113.75 278.8C1113.67 335.84 1113.72 392.88 1113.71 449.92C1113.71 455.82 1110.68 458.77 1104.63 458.77C1092.05 458.77 1079.47 458.79 1066.88 458.77C1059.71 458.76 1059.66 458.72 1059.66 451.35C1059.66 363.87 1059.66 276.4 1059.66 188.92C1059.66 128.96 1059.66 69.0102 1059.66 9.05022C1059.66 1.16022 1059.69 1.14023 1067.53 1.13023C1080.48 1.11023 1093.42 1.11023 1106.37 1.13023C1113.6 1.14023 1113.7 1.24024 1113.71 8.48024C1113.72 62.9702 1113.71 117.46 1113.71 171.95V178.48V178.47Z" fill="black"/>
<path d="M2016.34 280.201C2016.34 311.541 2016.25 342.891 2016.4 374.231C2016.45 384.211 2018.1 393.841 2025.47 401.531C2032.89 409.271 2042.58 410.981 2052.51 411.291C2065.99 411.701 2079.5 411.601 2092.99 411.361C2098.05 411.271 2099.7 413.111 2099.59 418.061C2099.33 429.721 2099.5 441.381 2099.5 453.051C2099.5 455.971 2099.26 458.721 2095.3 458.611C2072.01 457.961 2048.59 460.621 2025.42 456.701C1989.6 450.631 1969.19 429.521 1963.79 393.321C1962.42 384.131 1961.7 374.871 1961.7 365.571C1961.7 305.431 1961.7 245.301 1961.7 185.161C1961.7 179.207 1958.64 176.227 1952.53 176.221C1943.96 176.221 1935.39 176.121 1926.82 176.251C1922.78 176.311 1920.82 175.051 1920.89 170.621C1921.09 158.781 1921.09 146.931 1920.89 135.091C1920.82 130.751 1922.59 129.301 1926.72 129.361C1936.38 129.501 1946.05 129.251 1955.71 129.451C1960.25 129.541 1961.8 127.701 1961.75 123.291C1961.6 107.801 1961.86 92.3106 1961.61 76.8206C1961.52 71.5406 1963.41 69.8706 1968.61 69.9806C1982.1 70.2706 1995.59 70.0606 2009.09 70.0806C2016.14 70.0906 2016.31 70.2606 2016.32 77.5706C2016.34 92.1506 2016.32 106.731 2016.33 121.311C2016.33 126.684 2019.11 129.377 2024.66 129.391C2047.09 129.401 2069.52 129.381 2091.95 129.411C2098.99 129.411 2099.46 129.911 2099.49 136.801C2099.53 147.731 2099.33 158.671 2099.57 169.601C2099.68 174.621 2097.71 176.321 2092.82 176.291C2070.03 176.141 2047.23 176.221 2024.44 176.241C2019.05 176.241 2016.34 179.011 2016.33 184.551C2016.33 216.441 2016.33 248.331 2016.33 280.221L2016.34 280.201Z" fill="black"/>
<path d="M1808.24 331.71C1808.24 292.36 1808.17 253 1808.32 213.65C1808.34 208.75 1807.14 205.35 1803.19 201.96C1787.21 188.25 1783.18 162.46 1793.57 143.92C1804.64 124.17 1826.9 114.88 1848.16 121.15C1869.55 127.46 1883.46 147.48 1882 169.61C1881.17 182.17 1876.8 193.09 1867.19 201.4C1863.2 204.85 1862.02 208.68 1862.03 213.79C1862.16 292.32 1862.12 370.84 1862.12 449.37C1862.12 455.556 1859.04 458.65 1852.87 458.65C1840.84 458.65 1828.81 458.65 1816.77 458.65C1811.09 458.65 1808.25 455.873 1808.24 450.32C1808.24 410.78 1808.24 371.25 1808.24 331.71ZM1811.6 166.74C1811.55 180.86 1821.73 191.45 1835.27 191.37C1848.34 191.29 1858.74 180.41 1858.72 166.87C1858.69 153.43 1848.31 142.74 1835.09 142.56C1821.99 142.38 1811.65 153.03 1811.6 166.75V166.74Z" fill="black"/>
<path d="M1550.22 565.81C1550.22 575.09 1550.28 584.38 1550.22 593.66C1550.12 606.58 1543.76 617.07 1533.1 621.08C1519.8 626.09 1507.33 624.41 1496.27 615.13C1494.78 613.88 1493.44 612.16 1492.7 610.37C1491.48 607.44 1488.15 604.27 1491.61 601.12C1494.06 598.88 1502.26 600.92 1504.43 603.72C1510.11 611.07 1519.86 613.5 1527.79 609.54C1534.51 606.18 1538.02 597.22 1535.95 588.69C1535.05 584.97 1533.36 587.56 1532.17 588.36C1525.9 592.6 1519.15 594.84 1511.53 593.42C1497.77 590.85 1488.48 580.24 1486.74 565.21C1484.95 549.69 1492.07 535.61 1504.73 530.41C1513.89 526.65 1522.9 527.47 1531.4 532.69C1533.44 533.94 1534.85 536.39 1536.57 531.7C1538.24 527.16 1543.29 529.82 1546.82 529.6C1550.19 529.39 1550.19 532.27 1550.2 534.68C1550.23 545.06 1550.21 555.43 1550.22 565.81ZM1536 560.24C1536.26 556.01 1535.48 551.27 1532.14 547.2C1526.84 540.76 1518.72 538.64 1511.49 541.87C1503.25 545.56 1499.49 554.12 1501.08 565.52C1502.2 573.5 1508.5 580.06 1515.91 580.93C1516.09 580.95 1516.27 580.96 1516.45 580.98C1528.5 582.05 1535.97 574.45 1536 560.24Z" fill="black"/>
<path d="M1164.77 561.051C1164.77 552.491 1164.72 543.931 1164.8 535.371C1164.82 533.151 1164.1 529.921 1167.46 529.741C1170.98 529.551 1175.43 527.461 1177.81 531.681C1179.07 533.921 1179.61 533.521 1181.34 532.581C1194.42 525.481 1204.54 526.551 1215.13 536.541C1217.94 539.191 1218.91 537.451 1220.68 535.721C1232.83 523.831 1253.58 526.251 1261.11 540.401C1263.37 544.651 1264.49 549.281 1264.54 554.061C1264.66 565.171 1264.41 576.281 1264.67 587.391C1264.8 592.851 1261.68 593.041 1257.66 593.061C1253.67 593.081 1251.03 592.451 1251.15 587.461C1251.39 577.451 1251.39 567.421 1251.14 557.411C1250.86 545.991 1245.41 540.301 1235.54 540.541C1227.21 540.741 1222.17 545.551 1221.89 554.401C1221.56 564.771 1221.78 575.161 1221.72 585.541C1221.68 592.151 1215.12 595.801 1209.41 592.461C1207.24 591.191 1207.63 589.031 1207.62 587.101C1207.56 576.541 1207.72 565.971 1207.52 555.411C1207.33 545.251 1200.77 539.581 1190.84 540.621C1183.21 541.421 1178.54 546.761 1178.27 555.891C1177.97 565.901 1178.18 575.921 1178.14 585.941C1178.11 592.291 1172.48 595.491 1166.69 592.531C1164.36 591.331 1164.8 589.191 1164.79 587.271C1164.73 578.531 1164.76 569.791 1164.76 561.041L1164.77 561.051Z" fill="black"/>
<path d="M1812.69 561.04C1812.69 552.48 1812.64 543.92 1812.72 535.36C1812.74 533.12 1812.1 529.9 1815.42 529.74C1818.93 529.57 1823.52 527.33 1825.72 531.68C1827.18 534.57 1828.12 533.38 1829.72 532.48C1842.11 525.49 1852.9 526.651 1863.02 536.401C1865.32 538.621 1866.61 538.58 1868.7 536.32C1876.89 527.47 1887.11 526.07 1897.74 530.2C1908.81 534.5 1912.61 543.9 1912.53 555.24C1912.46 565.98 1912.32 576.73 1912.59 587.47C1912.73 593.02 1909.44 592.97 1905.51 593.05C1901.42 593.13 1898.96 592.26 1899.06 587.37C1899.29 576.81 1899.27 566.24 1899.06 555.69C1898.86 545.98 1893.22 540.44 1884.18 540.54C1875.61 540.64 1870.14 545.89 1869.83 555.07C1869.5 564.89 1869.71 574.73 1869.68 584.57C1869.66 592.75 1869.46 593 1862.81 593C1855.94 593 1855.56 592.55 1855.54 584.24C1855.52 574.59 1855.65 564.93 1855.48 555.29C1855.3 544.93 1849.68 539.87 1839.49 540.58C1832.55 541.06 1828.34 544.92 1827.05 552.16C1825.08 563.19 1826.38 574.33 1826.08 585.41C1825.89 592.41 1821.78 595.21 1815.11 592.73C1812.32 591.69 1812.7 589.37 1812.69 587.26C1812.64 578.52 1812.67 569.78 1812.67 561.04H1812.69Z" fill="black"/>
<path d="M1282.01 576.1C1282.01 562.63 1281.98 549.15 1282.04 535.68C1282.05 533.07 1281.44 529.42 1285.54 529.64C1289.21 529.84 1294.34 526.75 1296.15 532.8C1297.17 536.19 1298.63 534.49 1300.03 533.53C1304.16 530.7 1308.57 528.7 1313.65 528.38C1329.48 527.38 1341.3 536 1344.68 551.52C1346.92 561.8 1346.2 571.88 1340.11 580.91C1330.89 594.57 1314.61 597.76 1300.79 588.83C1299.64 588.09 1298.62 586.29 1297.09 587.09C1295.63 587.86 1296.29 589.72 1296.28 591.11C1296.23 599.49 1295.98 607.87 1296.34 616.23C1296.59 621.94 1293.77 622.7 1289.01 622.77C1283.96 622.84 1281.31 621.41 1282 616C1282.02 615.82 1282 615.64 1282 615.45C1282 602.34 1282 589.23 1282 576.12L1282.01 576.1ZM1314.24 581.05C1324.77 580.99 1332.05 572.6 1332.12 560.44C1332.19 548.82 1324.33 540.41 1313.51 540.55C1303.04 540.68 1296.15 549.04 1296.26 561.48C1296.37 573.44 1303.42 581.12 1314.24 581.05Z" fill="black"/>
<path d="M1706.61 575.691C1709.89 562.861 1713.18 550.031 1716.46 537.201C1718.37 529.751 1722.98 527.291 1730.51 529.581C1733.41 530.461 1733.52 533.001 1734.08 535.201C1737.04 546.841 1739.9 558.511 1742.82 570.171C1743.21 571.731 1743.72 573.271 1744.23 575.011C1746.42 573.501 1746.15 571.27 1746.62 569.47C1749.65 557.84 1752.49 546.171 1755.48 534.531C1756.6 530.171 1764.61 527.251 1768.23 529.801C1769.78 530.891 1769.23 532.431 1768.82 533.781C1763.23 552.251 1757.61 570.71 1751.97 589.16C1750.26 594.76 1745.51 592.571 1741.83 592.961C1738.37 593.331 1736.61 591.671 1735.74 588.231C1732.57 575.741 1729.14 563.321 1725.72 550.531C1723.63 551.731 1723.7 553.501 1723.31 554.941C1720.36 565.831 1717.33 576.711 1714.63 587.671C1713.68 591.531 1711.81 593.321 1707.83 593.021C1703.85 592.721 1699.48 594.221 1697.75 588.281C1692.51 570.281 1686.93 552.381 1681.39 534.461C1680.3 530.951 1681.09 529.491 1684.99 529.351C1693.41 529.041 1693.73 529.141 1695.77 537.201C1699.01 550.031 1702.26 562.861 1705.51 575.701C1705.88 575.701 1706.25 575.701 1706.62 575.701L1706.61 575.691Z" fill="black"/>
<path d="M2082.15 566.681C2075.96 566.681 2069.77 566.73 2063.58 566.66C2059.89 566.62 2059.27 568.251 2060.4 571.491C2064.2 582.371 2079.41 585.51 2087.38 576.98C2090.43 573.72 2097.92 571.901 2101.73 573.491C2104.79 574.771 2103.22 576.851 2102.34 578.431C2096.73 588.571 2087.81 593.491 2076.45 593.891C2059.81 594.471 2047.54 583.14 2045.04 565.23C2042.63 547.98 2052.07 532.92 2067.72 529.05C2089.13 523.76 2107.66 539.43 2106.11 561.41C2105.85 565.06 2104.34 566.691 2100.73 566.651C2094.54 566.591 2088.35 566.631 2082.16 566.631V566.681H2082.15ZM2075.4 554.67C2079.58 554.67 2083.75 554.69 2087.93 554.67C2090.82 554.65 2091.76 553.36 2090.92 550.47C2089.07 544.11 2083.38 540.391 2075.2 540.441C2068.06 540.481 2061.91 544.81 2060.22 550.8C2059.49 553.36 2060.11 554.681 2062.87 554.681C2067.05 554.681 2071.22 554.681 2075.4 554.681V554.67Z" fill="black"/>
<path d="M1087.34 511.951C1098.46 511.481 1107.18 515.121 1112.52 524.731C1113.95 527.311 1116.44 530.731 1113 533.561C1110.42 535.681 1100.88 533.941 1099.61 531.281C1096.33 524.391 1090.5 523.511 1083.95 524.291C1079.52 524.821 1076.55 527.361 1075.59 531.771C1074.57 536.451 1076.37 540.231 1080.54 542.291C1084.27 544.131 1088.37 545.231 1092.32 546.611C1095.59 547.751 1098.92 548.711 1102.15 549.951C1120.9 557.131 1118.34 579.281 1107.21 587.761C1096.89 595.621 1078.05 595.381 1068.45 586.701C1066.59 585.021 1064.86 582.941 1063.79 580.711C1062.25 577.491 1059.15 573.621 1063 570.501C1066.49 567.661 1074.72 570.541 1076.77 574.541C1080.58 581.951 1092.35 584.101 1098.59 578.521C1104.77 573.001 1103.11 564.341 1094.8 560.961C1088.4 558.361 1081.57 556.861 1075.09 554.441C1066.39 551.191 1061.3 544.711 1061.28 535.361C1061.26 526.151 1065.18 518.831 1073.98 514.731C1078.37 512.691 1082.92 511.611 1087.34 511.961V511.951Z" fill="black"/>
<path d="M1957.76 528.311C1976.54 528.291 1990.04 542.041 1989.8 560.941C1989.56 579.691 1975.51 594.071 1957.57 593.931C1939.55 593.791 1926.54 580.181 1926.49 561.441C1926.44 541.661 1939.03 528.331 1957.76 528.311ZM1975.69 560.171C1975.79 557.741 1975.16 555.071 1974.32 552.471C1971.99 545.251 1966.38 540.941 1958.95 540.571C1950.96 540.171 1944.94 543.621 1942.21 551.071C1939.63 558.121 1939.65 565.501 1942.81 572.371C1945.22 577.611 1949.46 580.821 1955.67 581.061C1967.99 581.531 1975.81 573.621 1975.68 560.171H1975.69Z" fill="black"/>
<path d="M1641.49 528.31C1660.25 528.32 1672.84 541.62 1672.8 561.37C1672.76 579.96 1658.76 594.02 1640.38 593.93C1623 593.85 1609.75 579.71 1609.5 560.98C1609.24 542.07 1622.73 528.29 1641.5 528.3L1641.49 528.31ZM1658.56 559.69C1658.54 559.16 1658.53 557.7 1658.4 556.25C1657.61 547.96 1651.33 541.44 1643.38 540.63C1634.45 539.72 1627.49 544.16 1624.87 552.55C1622.84 559.05 1622.96 565.52 1625.8 571.76C1628.44 577.56 1632.88 580.81 1639.43 581.05C1651.71 581.49 1658.61 574.18 1658.56 559.69Z" fill="black"/>
<path d="M1417.29 573.9C1422.09 561.08 1426.95 548.93 1431.12 536.55C1433.02 530.91 1436.01 528.87 1441.86 529.27C1446.45 529.58 1447.67 530.66 1445.8 535.14C1438.96 551.61 1432.36 568.19 1425.66 584.72C1421.22 595.68 1416.77 606.65 1412.28 617.59C1410.54 621.84 1401.99 624.41 1398.4 621.85C1396.45 620.46 1397.67 618.87 1398.23 617.47C1401.1 610.19 1403.97 602.9 1407.03 595.7C1408.32 592.66 1408.4 589.95 1407.15 586.82C1400.37 569.74 1393.78 552.58 1387.13 535.44C1384.92 529.73 1385.16 529.86 1391.43 529.3C1397.73 528.74 1400.94 530.8 1402.8 537.1C1405.89 547.56 1409.97 557.72 1413.72 567.97C1414.38 569.79 1414.73 571.85 1417.28 573.9H1417.29Z" fill="black"/>
<path d="M1373.95 550.53C1373.95 562.72 1373.78 574.92 1374.03 587.11C1374.14 592.25 1371.63 593.17 1367.29 593.08C1363.11 592.99 1359.74 592.88 1359.78 587.19C1359.92 562.62 1359.92 538.05 1359.78 513.48C1359.75 507.87 1362.94 507.56 1367.21 507.52C1371.47 507.48 1374.13 508.19 1374.03 513.4C1373.79 525.77 1373.95 538.15 1373.95 550.52V550.53Z" fill="black"/>
<path d="M1582.07 536.37C1586.18 532.12 1589.98 529.7 1594.52 528.67C1598.12 527.86 1600.43 528.6 1600.61 533.08C1600.96 541.39 1600.97 541.58 1592.76 542.91C1587.48 543.76 1584.45 546.92 1583.1 552.01C1581.24 559.01 1582.29 566.13 1582.06 573.19C1581.92 577.73 1581.73 582.31 1582.11 586.83C1582.56 592.34 1579.64 593.07 1575.14 593.1C1570.66 593.13 1568.5 591.95 1568.57 586.96C1568.79 570.04 1568.64 553.13 1568.66 536.21C1568.66 532.96 1568.09 529.21 1573.25 529.44C1577.35 529.62 1582.77 527.72 1582.07 536.37Z" fill="black"/>
<path d="M2018.37 535.27C2022 531.79 2025.59 529.41 2030.05 528.6C2033.79 527.92 2035.89 528.83 2036.07 533.18C2036.41 541.36 2036.45 541.44 2028.1 542.94C2023.23 543.81 2019.83 546.39 2018.5 551.43C2017.65 554.65 2017.5 557.88 2017.51 561.17C2017.53 569.54 2017.26 577.93 2017.61 586.28C2017.83 591.65 2015.69 593.15 2010.59 593.14C2005.56 593.12 2003.97 591.34 2004.04 586.4C2004.27 569.66 2004.09 552.91 2004.17 536.17C2004.18 533.5 2003.12 530.12 2007.65 529.46C2014.22 528.49 2016.53 529.48 2018.37 535.28V535.27Z" fill="black"/>
<path d="M1146.32 561.301C1146.32 570.021 1146.16 578.741 1146.39 587.461C1146.52 592.381 1143.92 593.161 1139.88 593.061C1135.89 592.961 1132.12 593.281 1132.17 587.431C1132.3 569.811 1132.3 552.191 1132.17 534.571C1132.13 528.851 1135.87 529.451 1139.56 529.381C1143.3 529.311 1146.49 529.401 1146.37 534.601C1146.17 543.501 1146.32 552.401 1146.32 561.301Z" fill="black"/>
<path d="M1147.91 513.27C1147.81 517.72 1143.93 521.67 1139.62 521.7C1134.88 521.74 1131.01 517.86 1131.01 513.08C1131.01 508.27 1134.84 504.4 1139.57 504.41C1144.24 504.42 1148.02 508.44 1147.91 513.27Z" fill="black"/>
</svg>
