<svg width="2360" height="597" viewBox="0 0 2360 597" fill="none" xmlns="http://www.w3.org/2000/svg">
<path d="M894.52 340.55C894.52 234.64 894.69 131.83 894.26 29.0303C894.22 18.7203 896.9 15.5903 907.06 16.4603C917.81 17.3803 928.79 17.5703 939.5 16.4203C950.93 15.2003 952.59 19.6803 952.55 29.9703C952.16 142.83 952.31 255.7 952.31 368.56C952.31 382.71 951.62 396.91 952.55 411.01C953.19 420.79 949.65 422.77 940.66 422.37C924.26 421.65 907.79 421.64 891.4 422.37C882.89 422.75 878.15 419.98 873.51 412.8C807.16 309.95 740.46 207.32 673.84 104.65C671.67 101.31 669.44 98.0103 666.51 93.5903C664.01 98.7503 664.93 103.14 664.93 107.26C664.87 208.2 664.74 309.15 665.11 410.09C665.15 419.75 663.13 423.24 652.95 422.39C641.09 421.39 629.05 421.65 617.14 422.34C609.19 422.8 607.3 420.21 607.32 412.46C607.59 317.48 607.5 222.49 607.5 127.51C607.5 93.6103 607.69 59.7203 607.34 25.8203C607.27 18.7303 608.88 16.2303 616.45 16.4703C634.73 17.0503 653.05 17.0903 671.32 16.4703C679.44 16.1903 683.79 19.0903 688.17 25.8103C754.58 127.74 821.32 229.47 888 331.23C889.54 333.59 891.23 335.86 894.52 340.55Z" fill="black"/>
<path d="M450.11 338C452.8 332.32 451.78 327.87 451.78 323.61C451.85 225.29 451.98 126.97 451.61 28.6498C451.57 18.9798 453.63 15.6298 463.78 16.4198C476.77 17.4298 489.89 16.8498 502.95 16.5698C507.79 16.4698 509.89 17.9098 509.3 22.8598C509.04 25.0598 509.26 27.3198 509.26 29.5598C509.26 156.18 509.09 282.81 509.56 409.43C509.6 420.69 506.31 422.98 495.94 422.41C479.57 421.51 463.07 421.53 446.69 422.44C438.39 422.9 434.81 418.89 430.99 412.99C363.09 308.07 295.08 203.21 227.09 98.3398C226.1 96.8098 225.08 95.3098 222.19 90.9698C222.19 97.5298 222.19 101.3 222.19 105.08C222.19 207.12 222.09 309.17 222.37 411.21C222.39 419.67 220.66 422.96 211.54 422.38C198.53 421.55 185.41 421.85 172.36 422.3C165.84 422.53 164.24 420.2 164.3 414C164.59 384.95 164.43 355.9 164.43 326.85C164.43 227.41 164.59 127.98 164.18 28.5398C164.14 18.6098 166.55 15.8998 176.45 16.4098C193.95 17.3098 211.54 17.0598 229.06 16.4798C236.69 16.2198 240.92 18.8098 245.07 25.1798C310.49 125.52 376.19 225.66 441.84 325.85C444.26 329.55 446.81 333.17 450.1 338.01L450.11 338Z" fill="black"/>
<path d="M1235.09 0.159873C1355.32 -0.140127 1452.65 96.9599 1452.62 217.18C1452.59 336.78 1355.61 434 1236.01 434.34C1116.51 434.68 1017.95 337.29 1017.74 218.65C1017.52 97.5399 1114.09 0.459873 1235.1 0.159873H1235.09ZM1403.74 138.53L1403.63 138.93L1403.93 138.73C1396.41 127.22 1391.09 114.23 1380.98 103.77C1378.06 121.1 1371.85 125.07 1355.68 120.33C1353.8 119.78 1352.14 119.18 1350.41 120.06C1332.12 129.41 1313.86 138.8 1295.59 148.19C1321.62 149.79 1347.09 149.82 1372.57 149.74C1374.29 149.74 1377.09 149.41 1377.57 148.39C1383.16 136.49 1393.63 138.09 1403.75 138.53H1403.74ZM1410.2 157.59C1398.67 173.11 1390.67 173.88 1378.82 160.48C1375.49 156.71 1372.16 157.98 1368.83 157.95C1344.23 157.77 1319.58 158.69 1295.03 157.53C1280.41 156.84 1268.33 161.55 1256.13 168.15C1251.92 170.43 1250.32 172.88 1250.39 177.59C1250.63 192.46 1250.6 207.35 1250.31 222.22C1250.2 227.68 1251.69 232.15 1254.7 236.7C1276.43 269.54 1297.97 302.5 1319.46 335.5C1322.16 339.65 1324.2 342.52 1330.53 342.23C1338.73 341.86 1344.76 347.42 1345.18 356.04C1345.67 366.25 1349.36 362.72 1354.08 358.99C1411.58 313.64 1435.94 227.43 1410.2 157.59ZM1124.55 364.44C1124.41 349.61 1128.71 342.07 1139.51 342.24C1145.85 342.34 1147.89 339.48 1150.55 335.4C1172.09 302.37 1193.66 269.35 1215.36 236.42C1217.89 232.58 1219.61 228.9 1219.52 224.12C1219.25 208.85 1219.44 193.58 1219.29 178.31C1219.26 175.53 1220.69 171.83 1217.18 170.27C1207.16 165.8 1198.68 157.75 1186.7 157.81C1157.95 157.95 1129.2 157.83 1100.46 157.89C1097.28 157.89 1093.7 156.74 1091.65 160.81C1088.26 167.52 1082.59 170.5 1075.14 169.63C1067.55 168.74 1063.78 163.16 1060.98 156.07C1032.04 226.14 1061.98 323.18 1124.56 364.44H1124.55ZM1369.27 90.2199C1301.98 16.8599 1177.43 9.54988 1100.87 90.0699C1112.65 91.5699 1122.33 95.1399 1121.31 109.52C1120.98 114.15 1125.25 114.33 1127.97 115.71C1148.53 126.15 1168.22 139.58 1189.98 146.02C1218.86 154.56 1250.18 154.28 1279.02 146.36C1301.54 140.18 1321.85 125.98 1343.11 115.26C1345.56 114.02 1348.99 113.61 1348.7 109.44C1347.77 95.6199 1356.62 91.5099 1369.27 90.2199ZM1331.37 375.25C1314.9 369.24 1314.02 367.84 1315.94 349.58C1316.35 345.7 1313.96 343.33 1312.2 340.62C1297.25 317.53 1283.67 293.36 1266.82 271.73C1246.77 245.99 1237.46 218.56 1241.67 186.19C1243.07 175.43 1238.01 162.56 1254.69 158.31C1248.9 160.62 1239.05 151.7 1239.11 165.56C1239.4 231.82 1239.22 298.09 1239.3 364.36C1239.3 367.06 1238.69 369.64 1241.61 372.28C1253.7 383.19 1253.92 387.28 1244.46 401.54C1275.62 400.3 1303.93 391.25 1331.37 375.26V375.25ZM1225.92 401.09C1217.48 389.06 1216.62 380.96 1225.04 375.12C1230.99 370.99 1230.78 366.48 1230.77 361.01C1230.76 297.73 1230.77 234.45 1230.77 171.18C1230.77 161.48 1225.86 157.477 1216.05 159.17C1218.92 163.61 1227.49 162.35 1227.64 168.22C1228.18 189.78 1227.89 211.36 1227.45 232.93C1227.4 235.49 1224.59 238.03 1222.97 240.53C1201.48 273.56 1179.96 306.58 1158.5 339.63C1156.54 342.65 1153.6 345.18 1153.98 349.44C1155.66 367.99 1155.26 368.63 1139.89 375.14C1164.49 390.93 1198.94 401.44 1225.92 401.1V401.09ZM1066.72 140.2C1077.73 136.61 1086.7 137.18 1092.23 147.86C1093.41 150.13 1095.97 149.83 1098.24 149.82C1123.42 149.79 1148.59 149.8 1173.77 149.8C1156.35 138.94 1138.4 129.64 1120.36 120.51C1118.87 119.75 1116.35 119.31 1115.12 120.05C1109.11 123.65 1103.33 123.93 1097.19 120.46C1091.22 117.08 1090.39 110.79 1088.44 104.54C1079.66 115.65 1072.98 127.02 1066.72 140.21V140.2ZM1234.67 394.35C1239.99 394.2 1242.81 390.99 1242.83 386.68C1242.85 382.37 1240.08 378.87 1235.06 379.06C1230.84 379.22 1228.23 381.66 1227.97 386.05C1227.68 390.97 1230.34 393.5 1234.67 394.34V394.35ZM1371.64 106.07C1370.97 101.75 1368.21 99.2199 1363.36 99.6699C1358.98 100.07 1356.49 103.36 1356.61 107.19C1356.75 111.54 1359.64 115.09 1364.51 114.77C1369.13 114.47 1371.78 111.48 1371.64 106.07ZM1147.71 358C1147.5 352.92 1144.64 350.05 1140.04 350.15C1135.38 350.25 1132.42 353.57 1132.73 358.21C1132.99 362.11 1135.45 365.2 1139.91 365.3C1144.83 365.41 1147.32 362.63 1147.72 357.99L1147.71 358ZM1328.8 349.88C1325.42 351.35 1321.82 353.14 1322.25 358.29C1322.61 362.61 1325.14 365.13 1329.4 365.31C1334.41 365.52 1337.21 362.12 1337.29 357.78C1337.37 353.31 1334.21 350.48 1328.8 349.88ZM1076.85 146.35C1072.29 147.2 1069.35 150.05 1069.83 154.65C1070.3 159.09 1073.46 162.27 1078.27 161.58C1082.19 161.01 1084.95 158.3 1084.81 153.88C1084.65 148.94 1081.73 146.66 1076.85 146.35ZM1113.64 106.13C1111.95 102.67 1110.03 98.9899 1104.92 99.6399C1100.72 100.17 1098.16 102.8 1098.25 107.12C1098.36 111.95 1101.35 114.9 1105.99 114.75C1110.65 114.6 1113 111.2 1113.63 106.13H1113.64ZM1400.76 154.16C1400.37 149.34 1398.01 146.45 1393.06 146.41C1388.61 146.37 1386.02 149.3 1385.59 153.2C1385.07 157.92 1388.18 161.19 1392.69 161.51C1397.3 161.84 1400.1 158.79 1400.76 154.15V154.16ZM1346.13 365.06C1346.41 364.77 1346.65 364.52 1346.89 364.27C1346.39 364.03 1345.92 363.7 1345.39 363.59C1345.2 363.55 1344.91 364.03 1344.66 364.27C1345.14 364.53 1345.63 364.79 1346.13 365.06Z" fill="black"/>
<path d="M1476.56 16.6703C1495.43 16.6703 1514.39 16.9402 1533.33 16.5202C1539.92 16.3702 1540.18 21.0403 1541.61 24.9203C1573.05 110.21 1604.41 195.52 1635.8 280.83C1643.97 303.05 1652.19 325.25 1661.23 349.73C1675.74 310.43 1689.43 273.44 1703.05 236.42C1728.8 166.44 1754.64 96.4902 1780.05 26.3802C1782.78 18.8502 1786.2 16.1203 1794.28 16.4503C1810.94 17.1303 1827.64 16.6502 1845.85 16.6502C1837.33 38.5902 1829.39 59.2902 1821.26 79.9102C1777.6 190.72 1733.81 301.49 1690.4 412.4C1687.51 419.8 1684.27 422.93 1676.11 422.34C1665.35 421.56 1654.45 421.62 1643.67 422.32C1635.74 422.84 1632.06 420.22 1629.14 412.64C1591.95 316.43 1554.38 220.37 1516.86 124.29C1504.44 92.4902 1491.84 60.7702 1479.51 28.9402C1478.09 25.2702 1475.43 21.7603 1476.56 16.6403V16.6703Z" fill="black"/>
<path d="M9.41971 218.88C9.41971 154.87 9.58975 90.8504 9.20975 26.8404C9.15975 18.5104 11.1299 15.8904 19.5999 16.4704C31.1099 17.2604 42.7596 17.2904 54.2596 16.4704C64.1096 15.7704 67.3696 18.2704 67.3196 28.9404C66.8496 123.1 67.0496 217.26 67.0496 311.42C67.0496 345.29 66.8098 379.16 67.2298 413.02C67.3198 420.55 65.0196 422.61 57.7796 422.31C45.1196 421.78 32.3898 421.65 19.7498 422.35C11.5298 422.8 9.14999 420.62 9.19999 412.04C9.60999 347.66 9.41971 283.27 9.41971 218.88Z" fill="black"/>
<path d="M2193.34 14.9596C2244.84 14.9596 2296.34 15.1796 2347.83 14.7496C2356.67 14.6796 2359.3 16.9196 2359.03 25.8396C2358.38 48.1596 2358.51 70.5196 2358.98 92.8396C2359.14 100.31 2356.81 102.16 2349.51 102.06C2318.54 101.65 2287.56 102.29 2256.6 101.65C2246.74 101.45 2243.56 103.56 2243.61 114.14C2244.06 212.43 2243.88 310.71 2243.88 409C2243.88 418.613 2238.89 423.42 2228.9 423.42C2203.9 423.42 2178.88 423 2153.9 423.64C2144.8 423.87 2142.12 421.71 2142.15 412.22C2142.53 312.82 2142.19 213.41 2142.66 114.01C2142.71 103.48 2139.58 101.45 2129.82 101.65C2098.86 102.27 2067.88 101.62 2036.91 102.06C2029.4 102.17 2027.65 99.8796 2027.79 92.7296C2028.24 70.0296 2028.31 47.2996 2027.77 24.6096C2027.58 16.6996 2029.93 14.7196 2037.72 14.7696C2089.59 15.1196 2141.46 14.9496 2193.33 14.9496L2193.34 14.9596ZM2192.87 18.5796C2142.12 18.5796 2091.37 18.7096 2040.63 18.4296C2033.29 18.3896 2030.11 19.6596 2030.37 27.9896C2031 48.4496 2030.91 68.9396 2030.4 89.4096C2030.21 97.1196 2032.23 99.5596 2040.26 99.4396C2071.22 98.9596 2102.21 99.6896 2133.16 98.9996C2143.29 98.7796 2146.02 101.34 2145.97 111.66C2145.54 211.06 2145.81 310.46 2145.55 409.86C2145.53 418.35 2147.42 421.31 2156.54 421.04C2180.4 420.34 2204.31 420.34 2228.17 421.03C2237.98 421.31 2241.09 419.08 2241.04 408.58C2240.58 309.18 2240.92 209.78 2240.52 110.38C2240.48 100.88 2243.01 98.8396 2252.15 99.0196C2283.48 99.6296 2314.84 98.9996 2346.18 99.4396C2353.62 99.5396 2355.55 97.4196 2355.38 90.1696C2354.9 69.7096 2354.77 49.2096 2355.42 28.7496C2355.68 20.4596 2353.57 18.2896 2345.11 18.3696C2294.37 18.8196 2243.62 18.5896 2192.87 18.5896V18.5796Z" fill="black"/>
<path d="M1884.59 219.05C1884.59 154.62 1884.77 90.1998 1884.38 25.7698C1884.33 16.9798 1886.57 14.5399 1895.44 14.7299C1922.68 15.3399 1949.94 15.2098 1977.18 14.7798C1984.46 14.6598 1986.79 16.5599 1986.78 24.0099C1986.58 154.35 1986.58 284.7 1986.78 415.04C1986.79 422.13 1984.52 423.68 1977.82 423.59C1950.2 423.22 1922.56 422.93 1894.96 423.71C1885.34 423.98 1884.4 420.3 1884.43 412.33C1884.7 347.9 1884.58 283.48 1884.58 219.05H1884.59ZM1983.22 220.08C1983.22 156.03 1983.14 91.9699 1983.34 27.9199C1983.36 21.2599 1982.52 18.1898 1974.53 18.3598C1948.04 18.9298 1921.53 18.7898 1895.03 18.4298C1888.31 18.3398 1887.19 20.9298 1887.2 26.8598C1887.34 154.97 1887.38 283.08 1887.14 411.19C1887.12 419.33 1890 421.05 1897.49 420.93C1922.49 420.53 1947.52 420.36 1972.51 421C1981.4 421.23 1983.47 418.59 1983.42 410C1983.05 346.69 1983.22 283.38 1983.22 220.07V220.08Z" fill="black"/>
<path d="M1346.12 365.049C1345.62 364.779 1345.13 364.519 1344.65 364.259C1344.9 364.019 1345.19 363.54 1345.38 363.58C1345.9 363.69 1346.38 364.019 1346.88 364.259C1346.64 364.509 1346.4 364.759 1346.12 365.049Z" fill="black"/>
<path d="M1403.93 138.73L1403.63 138.93C1403.63 138.93 1403.74 138.53 1403.73 138.54C1403.73 138.55 1403.93 138.73 1403.93 138.73Z" fill="black"/>
<path d="M2192.87 18.58C2243.62 18.58 2294.37 18.8 2345.11 18.36C2353.57 18.29 2355.68 20.45 2355.42 28.74C2354.77 49.2 2354.89 69.6901 2355.38 90.16C2355.55 97.4 2353.62 99.53 2346.18 99.43C2314.84 99 2283.49 99.6301 2252.15 99.0101C2243.01 98.8301 2240.48 100.87 2240.52 110.37C2240.92 209.77 2240.58 309.17 2241.04 408.57C2241.09 419.07 2237.98 421.3 2228.17 421.02C2204.31 420.33 2180.4 420.33 2156.54 421.03C2147.43 421.3 2145.53 418.34 2145.55 409.85C2145.82 310.45 2145.55 211.05 2145.97 111.65C2146.01 101.33 2143.28 98.77 2133.16 98.99C2102.2 99.68 2071.22 98.95 2040.26 99.43C2032.23 99.55 2030.21 97.11 2030.4 89.4C2030.91 68.94 2030.99 48.4401 2030.37 27.9801C2030.11 19.6501 2033.29 18.3801 2040.63 18.4201C2091.38 18.7001 2142.13 18.5701 2192.87 18.5701V18.58Z" fill="black"/>
<path d="M1983.23 220.08C1983.23 283.39 1983.06 346.7 1983.43 410.01C1983.48 418.61 1981.41 421.24 1972.52 421.01C1947.53 420.37 1922.5 420.53 1897.5 420.94C1890.01 421.06 1887.14 419.34 1887.15 411.2C1887.39 283.09 1887.35 154.98 1887.21 26.87C1887.21 20.93 1888.32 18.34 1895.04 18.44C1921.54 18.8 1948.05 18.94 1974.54 18.37C1982.53 18.2 1983.37 21.27 1983.35 27.93C1983.14 91.98 1983.23 156.04 1983.23 220.09V220.08Z" fill="black"/>
<path d="M1262.44 114.84C1262.44 130.38 1250.56 142.18 1234.94 142.16C1219.29 142.14 1207.49 130.37 1207.5 114.8C1207.51 99.4902 1219.78 87.1402 1234.98 87.1602C1250.2 87.1702 1262.44 99.5202 1262.44 114.84ZM1254.8 114.96C1254.89 104.3 1245.56 95.0202 1234.83 95.1002C1224.56 95.1802 1215.5 103.89 1215.05 114.11C1214.6 124.47 1224.02 134.41 1234.54 134.69C1245.13 134.97 1254.7 125.65 1254.8 114.95V114.96Z" fill="black"/>
<path d="M552.53 504.92V591.68H531.4V504.92H552.53Z" fill="black" stroke="#231F20" stroke-width="2"/>
<path d="M645.47 591.68H624.34L588.99 538.16V591.68H567.86V504.92H588.99L624.34 558.68V504.92H645.47V591.68Z" fill="black" stroke="#231F20" stroke-width="2"/>
<path d="M738.42 591.68H717.29L681.94 538.16V591.68H660.81V504.92H681.94L717.29 558.68V504.92H738.42V591.68Z" fill="black" stroke="#231F20" stroke-width="2"/>
<path d="M772.35 586.86C765.55 583.07 760.15 577.78 756.16 570.98C752.16 564.18 750.17 556.54 750.17 548.05C750.17 539.56 752.17 531.94 756.16 525.18C760.16 518.43 765.55 513.15 772.35 509.36C779.15 505.57 786.63 503.68 794.78 503.68C802.93 503.68 810.42 505.58 817.21 509.36C824.01 513.15 829.36 518.43 833.28 525.18C837.19 531.94 839.15 539.56 839.15 548.05C839.15 556.54 837.17 564.18 833.22 570.98C829.27 577.78 823.91 583.07 817.15 586.86C810.39 590.65 802.94 592.55 794.78 592.55C786.62 592.55 779.15 590.66 772.35 586.86ZM811.41 566.34C815.57 561.73 817.65 555.63 817.65 548.05C817.65 540.47 815.57 534.27 811.41 529.7C807.25 525.13 801.71 522.84 794.79 522.84C787.87 522.84 782.2 525.11 778.04 529.64C773.88 534.17 771.8 540.31 771.8 548.06C771.8 555.81 773.88 561.84 778.04 566.41C782.2 570.98 787.78 573.27 794.79 573.27C801.8 573.27 807.25 570.96 811.41 566.35V566.34Z" fill="black" stroke="#231F20" stroke-width="2"/>
<path d="M932.34 504.92L901.56 591.68H875.11L844.33 504.92H866.82L888.33 570.43L909.96 504.92H932.33H932.34Z" fill="black" stroke="#231F20" stroke-width="2"/>
<path d="M995.13 576.36H962.75L957.56 591.69H935.44L966.83 504.93H991.3L1022.69 591.69H1000.32L995.13 576.36ZM989.69 560.05L978.94 528.29L968.31 560.05H989.69Z" fill="black" stroke="#231F20" stroke-width="2"/>
<path d="M1094.62 504.92V521.85H1071.63V591.68H1050.49V521.85H1027.5V504.92H1094.61H1094.62Z" fill="black" stroke="#231F20" stroke-width="2"/>
<path d="M1126.38 504.92V591.68H1105.25V504.92H1126.38Z" fill="black" stroke="#231F20" stroke-width="2"/>
<path d="M1160.31 586.86C1153.51 583.07 1148.11 577.78 1144.12 570.98C1140.12 564.18 1138.13 556.54 1138.13 548.05C1138.13 539.56 1140.13 531.94 1144.12 525.18C1148.12 518.43 1153.51 513.15 1160.31 509.36C1167.11 505.57 1174.59 503.68 1182.74 503.68C1190.89 503.68 1198.38 505.58 1205.17 509.36C1211.97 513.15 1217.32 518.43 1221.24 525.18C1225.15 531.94 1227.11 539.56 1227.11 548.05C1227.11 556.54 1225.13 564.18 1221.18 570.98C1217.23 577.78 1211.87 583.07 1205.11 586.86C1198.35 590.65 1190.9 592.55 1182.74 592.55C1174.58 592.55 1167.11 590.66 1160.31 586.86ZM1199.37 566.34C1203.53 561.73 1205.61 555.63 1205.61 548.05C1205.61 540.47 1203.53 534.27 1199.37 529.7C1195.21 525.13 1189.67 522.84 1182.75 522.84C1175.83 522.84 1170.16 525.11 1166 529.64C1161.84 534.17 1159.76 540.31 1159.76 548.06C1159.76 555.81 1161.84 561.84 1166 566.41C1170.16 570.98 1175.74 573.27 1182.75 573.27C1189.76 573.27 1195.21 570.96 1199.37 566.35V566.34Z" fill="black" stroke="#231F20" stroke-width="2"/>
<path d="M1316.47 591.68H1295.34L1259.99 538.16V591.68H1238.86V504.92H1259.99L1295.34 558.68V504.92H1316.47V591.68Z" fill="black" stroke="#231F20" stroke-width="2"/>
<path d="M21.8901 501.96V591.12H0.169922V501.96H21.8901Z" fill="black"/>
<path d="M101.78 501.96V519.36H78.1602V591.12H56.4399V519.36H32.8198V501.96H101.79H101.78Z" fill="black"/>
<path d="M168.21 575.37H134.93L129.6 591.12H106.87L139.13 501.96H164.28L196.54 591.12H173.55L168.22 575.37H168.21ZM162.62 558.6L151.57 525.96L140.65 558.6H162.62Z" fill="black"/>
<path d="M228.03 574.36H256.48V591.13H206.31V501.97H228.03V574.36Z" fill="black"/>
<path d="M288.61 501.96V591.12H266.89V501.96H288.61Z" fill="black"/>
<path d="M359.86 575.37H326.58L321.25 591.12H298.52L330.78 501.96H355.93L388.19 591.12H365.2L359.87 575.37H359.86ZM354.27 558.6L343.22 525.96L332.3 558.6H354.27Z" fill="black"/>
<path d="M477.73 591.12H456.01L419.69 536.12V591.12H397.97V501.96H419.69L456.01 557.21V501.96H477.73V591.12Z" fill="black"/>
<path d="M1441.86 591.77L1433.6 583.77C1425.39 590.04 1415.56 593.17 1404.13 593.17C1397.27 593.17 1391.3 592.05 1386.22 589.8C1381.14 587.55 1377.22 584.38 1374.47 580.27C1371.72 576.16 1370.34 571.36 1370.34 565.85C1370.34 560.34 1371.84 555.2 1374.85 550.67C1377.85 546.14 1382.36 542.44 1388.38 539.56C1386.18 536.85 1384.61 534.25 1383.68 531.75C1382.75 529.25 1382.28 526.52 1382.28 523.56C1382.28 519.33 1383.38 515.48 1385.58 512C1387.78 508.53 1390.98 505.8 1395.17 503.81C1399.36 501.82 1404.33 500.82 1410.09 500.82C1415.85 500.82 1420.88 501.88 1424.95 504C1429.01 506.12 1432.06 508.95 1434.09 512.51C1436.12 516.07 1437.05 519.96 1436.88 524.2H1416.43C1416.51 521.91 1415.94 520.16 1414.72 518.93C1413.49 517.7 1411.86 517.09 1409.83 517.09C1407.8 517.09 1406.1 517.68 1404.75 518.87C1403.39 520.06 1402.72 521.58 1402.72 523.44C1402.72 525.3 1403.29 527.08 1404.43 529.03C1405.57 530.98 1407.37 533.22 1409.83 535.76L1431.55 556.97C1431.72 556.55 1431.95 556.04 1432.25 555.45C1432.54 554.86 1432.86 554.18 1433.2 553.42L1437.9 545.42H1459.62L1453.52 556.47C1451.23 561.47 1448.61 566.21 1445.65 570.7L1467.11 591.78H1441.84L1441.86 591.77ZM1420.27 570.81L1400.46 551.63C1394.36 554.76 1391.32 559 1391.32 564.33C1391.32 567.55 1392.57 570.24 1395.07 572.39C1397.57 574.55 1400.93 575.63 1405.17 575.63C1410.84 575.63 1415.88 574.02 1420.28 570.8L1420.27 570.81Z" fill="black"/>
<path d="M1502.8 527.63C1506.61 520.73 1511.92 515.35 1518.74 511.5C1525.56 507.65 1533.28 505.72 1541.92 505.72C1552.5 505.72 1561.56 508.51 1569.1 514.1C1576.64 519.69 1581.67 527.31 1584.21 536.96H1560.33C1558.55 533.23 1556.03 530.4 1552.77 528.45C1549.51 526.5 1545.8 525.53 1541.66 525.53C1534.97 525.53 1529.55 527.86 1525.4 532.52C1521.25 537.18 1519.18 543.4 1519.18 551.19C1519.18 558.98 1521.25 565.2 1525.4 569.86C1529.55 574.52 1534.97 576.85 1541.66 576.85C1545.81 576.85 1549.51 575.88 1552.77 573.93C1556.03 571.98 1558.55 569.15 1560.33 565.42H1584.21C1581.67 575.07 1576.63 582.67 1569.1 588.22C1561.56 593.77 1552.5 596.54 1541.92 596.54C1533.28 596.54 1525.56 594.62 1518.74 590.76C1511.92 586.91 1506.61 581.55 1502.8 574.69C1498.99 567.83 1497.09 560 1497.09 551.19C1497.09 542.38 1498.99 534.53 1502.8 527.63Z" fill="black"/>
<path d="M1618.89 506.73V560.07C1618.89 565.4 1620.2 569.51 1622.83 572.39C1625.45 575.27 1629.31 576.71 1634.39 576.71C1639.47 576.71 1643.36 575.27 1646.08 572.39C1648.79 569.51 1650.14 565.4 1650.14 560.07V506.73H1671.86V559.95C1671.86 567.91 1670.17 574.64 1666.78 580.14C1663.39 585.64 1658.84 589.79 1653.13 592.59C1647.41 595.38 1641.04 596.78 1634.01 596.78C1626.98 596.78 1620.69 595.4 1615.15 592.65C1609.6 589.9 1605.22 585.75 1602 580.2C1598.78 574.66 1597.17 567.9 1597.17 559.94V506.72H1618.89V506.73Z" fill="black"/>
<path d="M1708.81 579.13H1737.26V595.9H1687.09V506.74H1708.81V579.13Z" fill="black"/>
<path d="M1811.81 506.729V524.13H1788.19V595.89H1766.47V524.13H1742.85V506.729H1811.82H1811.81Z" fill="black"/>
<path d="M1844.07 506.73V560.07C1844.07 565.4 1845.38 569.51 1848.01 572.39C1850.63 575.27 1854.49 576.71 1859.57 576.71C1864.65 576.71 1868.54 575.27 1871.25 572.39C1873.96 569.51 1875.31 565.4 1875.31 560.07V506.73H1897.03V559.95C1897.03 567.91 1895.33 574.64 1891.95 580.14C1888.56 585.64 1884.01 589.79 1878.3 592.59C1872.59 595.38 1866.21 596.78 1859.19 596.78C1852.17 596.78 1845.87 595.4 1840.33 592.65C1834.78 589.9 1830.4 585.75 1827.18 580.2C1823.96 574.66 1822.35 567.9 1822.35 559.94V506.72H1844.07V506.73Z" fill="black"/>
<path d="M1957.74 595.89L1939.2 562.229H1933.99V595.89H1912.27V506.729H1948.72C1955.75 506.729 1961.74 507.959 1966.69 510.409C1971.64 512.869 1975.35 516.23 1977.8 520.51C1980.26 524.79 1981.48 529.549 1981.48 534.799C1981.48 540.729 1979.81 546.02 1976.46 550.68C1973.11 555.34 1968.18 558.64 1961.66 560.59L1982.24 595.9H1957.73L1957.74 595.89ZM1933.99 546.859H1947.45C1951.43 546.859 1954.41 545.89 1956.4 543.94C1958.39 541.99 1959.38 539.24 1959.38 535.68C1959.38 532.12 1958.38 529.63 1956.4 527.68C1954.41 525.73 1951.42 524.76 1947.45 524.76H1933.99V546.859Z" fill="black"/>
<path d="M2016.8 524.13V542.169H2045.88V558.93H2016.8V578.49H2049.69V595.89H1995.08V506.729H2049.69V524.13H2016.8Z" fill="black"/>
<path d="M2176.41 504.25V593.41H2154.69V556.7H2120.91V593.41H2099.19V504.25H2120.91V539.18H2154.69V504.25H2176.41Z" fill="black"/>
<path d="M2213.37 504.25V557.59C2213.37 562.92 2214.68 567.03 2217.31 569.91C2219.93 572.79 2223.79 574.23 2228.87 574.23C2233.95 574.23 2237.84 572.79 2240.56 569.91C2243.27 567.03 2244.62 562.92 2244.62 557.59V504.25H2266.34V557.47C2266.34 565.43 2264.65 572.16 2261.26 577.66C2257.87 583.16 2253.32 587.31 2247.61 590.11C2241.89 592.9 2235.52 594.3 2228.5 594.3C2221.48 594.3 2215.18 592.92 2209.64 590.17C2204.09 587.42 2199.71 583.27 2196.49 577.72C2193.27 572.18 2191.66 565.42 2191.66 557.46V504.24H2213.38L2213.37 504.25Z" fill="black"/>
<path d="M2348 555.38C2351.13 559.4 2352.7 564 2352.7 569.16C2352.7 576.61 2350.1 582.52 2344.89 586.88C2339.68 591.24 2332.42 593.42 2323.11 593.42H2281.58V504.26H2321.71C2330.77 504.26 2337.86 506.34 2342.98 510.48C2348.1 514.63 2350.66 520.26 2350.66 527.37C2350.66 532.62 2349.28 536.98 2346.53 540.45C2343.78 543.92 2340.12 546.34 2335.54 547.69C2340.7 548.79 2344.85 551.35 2347.99 555.37L2348 555.38ZM2303.29 540.33H2317.51C2321.07 540.33 2323.8 539.55 2325.7 537.98C2327.6 536.41 2328.56 534.11 2328.56 531.06C2328.56 528.01 2327.61 525.68 2325.7 524.07C2323.79 522.46 2321.06 521.66 2317.51 521.66H2303.29V540.33ZM2327.74 573.42C2329.73 571.77 2330.72 569.38 2330.72 566.24C2330.72 563.1 2329.68 560.65 2327.61 558.87C2325.53 557.09 2322.68 556.2 2319.04 556.2H2303.29V575.89H2319.29C2322.93 575.89 2325.75 575.06 2327.74 573.41V573.42Z" fill="black"/>
</svg>
