<svg width="1305" height="1305" viewBox="0 0 1305 1305" fill="none" xmlns="http://www.w3.org/2000/svg">
<path d="M1304.19 4.59C1304.19 0.84 1303.35 0 1299.6 0C867.93 0.1 436.26 0.1 4.6 0C0.85 0 0 0.84 0 4.59C0.11 220.43 0.1 436.26 0.1 652.09C0.1 867.92 0.11 1083.76 0 1299.59C0 1303.34 0.85 1304.19 4.6 1304.19C436.26 1304.09 867.93 1304.09 1299.6 1304.19C1303.35 1304.19 1304.19 1303.34 1304.19 1299.59C1304.09 867.93 1304.09 436.26 1304.19 4.59ZM788.1 419.17C788.14 402.23 790.49 385.64 796.62 369.73C805.96 345.48 823.16 329.65 848.16 322.9C872.82 316.24 897.6 316.31 922.01 324.45C948.13 333.15 961.24 352.39 964.88 378.84C967.15 395.42 965.62 412.12 965.96 428.76C966.04 432.69 964.01 434.02 960.27 433.75C946.13 432.71 931.96 433.18 917.81 433.45C913.57 433.53 912.24 431.92 912.15 427.96C911.88 415.81 913.09 403.62 911.23 391.52C909.9 382.93 907.12 374.95 900.05 369.31C882.12 355 855.8 363.09 849.13 384.83C844.72 399.22 844.43 414.14 844.36 428.89C844.03 497.04 844.11 565.19 844.3 633.33C844.33 644.8 845.29 656.28 848.69 667.41C853.13 681.95 861.9 688.99 876.98 689.8C890.11 690.5 902.38 682.37 907.51 669.7C910.75 661.69 911.93 653.31 912.11 644.78C912.3 635.95 912.27 627.12 912.16 618.29C912.11 614.03 914.01 612.24 918.17 612.26C932.15 612.31 946.14 612.33 960.12 612.23C964.41 612.2 966.02 614.09 965.99 618.29C965.88 636.61 966.82 654.97 964.83 673.22C961.76 701.42 947.85 721.74 917.68 729.64C891.94 736.38 866.11 735.81 840.75 727.99C817.91 720.95 802.58 705.62 794.91 682.85C790.29 669.14 788.14 655.03 788.12 640.61C788.06 603.45 788.1 566.3 788.1 529.14H788.07C788.07 492.48 788.01 455.83 788.1 419.17ZM615.25 92.3C621.01 71.52 628.89 51.56 638.81 32.43C639.98 30.18 640.61 26.53 643.46 26.52C646.09 26.51 646.52 30.11 647.63 32.24C664.54 64.43 675.22 98.61 679.74 134.67C680.9 143.91 681.48 153.24 681.12 160.93C681.22 180.99 679.87 199.21 674.27 216.88C671.78 224.73 668.12 231.95 662.77 238.31C652.17 250.92 635.02 251.18 624 238.9C615.79 229.75 611.88 218.62 609.52 206.96C601.67 168.29 604.78 130.09 615.25 92.3ZM550.17 330.4C550.17 322.19 550.23 322.1 558.61 322.09C588.93 322.05 619.25 322.04 649.58 322.04C662.61 322.04 675.54 323.19 688.23 326.25C709.84 331.44 724.5 344.23 731.51 365.64C736.28 380.2 738.33 395.21 738.92 410.36C741.61 480.29 740.15 550.27 739.83 620.22C739.73 642.03 737.11 663.76 729.02 684.45C720.14 707.2 703.25 720.14 680.03 725.81C664.38 729.62 648.39 730.52 632.43 730.85C610.78 731.31 589.11 731.01 567.46 730.93C562.8 730.93 558.15 730.42 553.49 730.23C551.17 730.14 550.21 728.96 550.21 726.76C550.21 725.1 550.17 723.43 550.17 721.76V330.4ZM319.12 616.88C319.07 613.78 320.69 612.28 323.74 612.3C338.23 612.39 352.72 612.55 367.21 612.54C371.29 612.54 372.15 614.6 372.19 618.19C372.33 630.17 371.44 642.18 373.02 654.13C374.39 664.42 377.3 674.06 385 681.51C400.33 696.35 426.17 690.91 434.29 671.29C439.39 658.98 439.94 645.96 439.96 632.99C440.11 532.87 440.05 432.74 440.05 332.61C440.05 325.57 443.643 322.047 450.83 322.04C463.66 322.03 476.49 322.02 489.31 322.04C496.55 322.06 496.97 322.45 496.97 329.69C496.99 381.17 496.97 432.65 496.97 484.13H496.99C496.99 533.78 497.09 583.43 496.93 633.07C496.88 647.91 495.39 662.64 491.38 677.05C484.19 702.91 468.6 720.81 442.45 728.43C415.9 736.17 389.15 736.31 362.65 728.37C337.41 720.82 323.92 702.73 320.31 677.28C317.47 657.27 319.44 637.02 319.11 616.88H319.12ZM175.77 328.14C180.66 314.48 186.48 301.22 193.44 288.49C194.27 286.97 194.56 284.48 196.75 284.57C198.76 284.66 199.35 286.98 200.18 288.53C214.98 316.39 225.27 345.84 230.83 376.9C233.51 391.83 235.03 406.89 235.04 425.27C234.09 442.73 233.21 463.37 224.75 482.76C222.05 488.96 218.47 494.5 213.56 499.13C203.64 508.46 189.09 508.33 179.38 498.82C168.86 488.52 164.66 475.18 162.24 461.27C154.31 415.66 160.28 371.39 175.77 328.14ZM913 1223.4C913 1230.73 912.66 1231.1 905.44 1231.11C866.45 1231.13 827.47 1231.11 788.48 1231.11H641.53V1231.08C553.9 1231.08 466.26 1231.04 378.63 1231.19C373.66 1231.19 371.89 1230.01 372.03 1224.82C372.38 1212.5 372.11 1200.17 372.16 1187.84C372.19 1181.75 373.11 1181.06 379.31 1181.48C383.3 1181.75 387.29 1181.94 391.29 1181.95C561.72 1181.97 732.16 1181.95 902.6 1181.97C909.527 1181.97 912.993 1185.45 913 1192.4C913 1202.73 913.01 1213.06 913 1223.39V1223.4ZM755.4 1010.09C762.64 1010.09 762.96 1010.48 762.97 1017.8C762.97 1029.79 762.88 1041.78 763 1053.77C763.05 1058.16 761.77 1060.15 756.89 1059.7C752.29 1059.27 747.59 1059.94 742.94 1059.94C673.99 1059.96 605.05 1059.96 536.1 1059.94C526.84 1059.94 522.207 1055.27 522.2 1045.94C522.2 1036.45 522.19 1026.96 522.2 1017.46C522.2 1010.59 522.68 1010.05 529.58 1010.05C567.38 1010.02 605.18 1010.03 642.99 1010.03V1010.07C680.46 1010.07 717.93 1010.05 755.4 1010.07V1010.09ZM807.08 1095.96C810.57 1095.96 814.07 1095.69 817.55 1095.42C821.06 1095.15 822.95 1096.51 822.95 1100.19C822.93 1113.52 822.93 1126.85 822.97 1140.18C822.97 1143.51 821.43 1145.1 818.12 1145.08C815.95 1145.06 813.79 1145.13 811.62 1145.13H642.16C585.01 1145.13 527.86 1145.13 470.7 1145.13C462.32 1145.13 462.2 1145.01 462.18 1136.86C462.16 1125.2 462.31 1113.53 462.11 1101.87C462.04 1097.38 463.46 1095.86 468.17 1095.87C581.14 1096 694.11 1095.98 807.08 1095.96ZM1122.3 563.54C1116.26 601.56 1105.78 638.29 1090.93 673.84C1075.49 710.8 1055.87 745.35 1031.8 777.28C994.6 826.62 949.86 867.77 897.07 900.13C844.58 932.32 788.09 953.77 727.5 964.42C705.5 968.29 683.3 970.33 660.95 971.24C609.71 973.33 559.54 967.04 510.29 953.11C442.55 933.93 382.02 901.11 328.47 855.55C292.86 825.25 262.34 790.34 236.84 751.1C200.77 695.59 177.23 635.14 165.63 570C164.117 561.48 167.59 557.22 176.05 557.22H193.05V557.24C200.55 557.24 208.05 557.39 215.55 557.18C219.86 557.06 221.68 558.77 222.48 563.05C228.29 594.11 236.95 624.32 249.37 653.43C265.9 692.16 287.54 727.73 314.44 760.14C342 793.35 373.95 821.53 409.98 845.24C444.48 867.94 481.56 885.08 521.09 896.83C551.04 905.73 581.62 911.36 612.87 913.36C658.43 916.29 703.38 912.93 747.72 901.77C798.7 888.93 845.79 867.53 888.73 837.26C943.25 798.83 986.75 750.44 1018.87 691.85C1041.02 651.44 1056.3 608.67 1064.34 563.32C1065.12 558.93 1067 557.09 1071.6 557.15C1086.76 557.36 1101.93 557.19 1117.09 557.25C1122.58 557.28 1123.18 558.04 1122.3 563.54ZM1120.55 474.24C1117.76 482.51 1114.18 490.38 1107.93 496.69C1096.41 508.32 1079.74 507.31 1069.45 494.6C1060.18 483.14 1056.35 469.55 1054.32 455.44C1046.86 403.65 1056 354.28 1076.85 306.74C1079.66 300.33 1082.78 294.07 1085.86 287.78C1086.7 286.06 1087.19 283.52 1089.52 283.47C1091.62 283.43 1092.1 285.86 1092.93 287.39C1106.41 312.33 1115.9 338.72 1121.94 366.42C1126.08 385.41 1127.29 404.65 1128.02 425.3C1126.76 440.91 1126.05 457.93 1120.55 474.24Z" fill="white"/>
<path d="M1128.02 425.3C1126.76 440.91 1126.05 457.93 1120.55 474.24C1117.76 482.51 1114.18 490.38 1107.93 496.69C1096.41 508.32 1079.74 507.31 1069.45 494.6C1060.18 483.14 1056.35 469.55 1054.32 455.44C1046.86 403.65 1056 354.28 1076.85 306.74C1079.66 300.33 1082.78 294.07 1085.86 287.78C1086.7 286.06 1087.19 283.52 1089.52 283.47C1091.62 283.43 1092.1 285.86 1092.93 287.39C1106.41 312.33 1115.9 338.72 1121.94 366.42C1126.08 385.41 1127.29 404.65 1128.02 425.3Z" fill="black"/>
<path d="M913 1192.41C913 1202.74 913.01 1213.07 913 1223.4C913 1230.73 912.66 1231.1 905.44 1231.11C866.45 1231.13 827.47 1231.11 788.48 1231.11H641.53V1231.08C553.9 1231.08 466.26 1231.04 378.63 1231.19C373.66 1231.19 371.89 1230.01 372.03 1224.82C372.38 1212.5 372.11 1200.17 372.16 1187.84C372.19 1181.75 373.11 1181.06 379.31 1181.48C383.3 1181.75 387.29 1181.94 391.29 1181.95C561.72 1181.97 732.16 1181.95 902.6 1181.97C909.527 1181.97 912.993 1185.45 913 1192.4V1192.41Z" fill="black"/>
<path d="M822.97 1140.18C822.97 1143.51 821.43 1145.1 818.12 1145.08C815.95 1145.06 813.79 1145.13 811.62 1145.13H642.16C585.01 1145.13 527.86 1145.13 470.7 1145.13C462.32 1145.13 462.2 1145.01 462.18 1136.86C462.16 1125.2 462.31 1113.53 462.11 1101.87C462.04 1097.38 463.46 1095.86 468.17 1095.87C581.14 1096 694.11 1095.98 807.08 1095.96C810.57 1095.96 814.07 1095.69 817.55 1095.42C821.06 1095.15 822.95 1096.51 822.95 1100.19C822.93 1113.52 822.93 1126.85 822.97 1140.18Z" fill="black"/>
<path d="M763 1053.77C763.05 1058.16 761.77 1060.15 756.89 1059.7C752.29 1059.27 747.59 1059.94 742.94 1059.94C673.99 1059.96 605.05 1059.96 536.1 1059.94C526.84 1059.94 522.207 1055.27 522.2 1045.94C522.2 1036.45 522.19 1026.96 522.2 1017.46C522.2 1010.59 522.68 1010.05 529.58 1010.05C567.38 1010.02 605.18 1010.03 642.99 1010.03V1010.07C680.46 1010.07 717.93 1010.05 755.4 1010.07C762.64 1010.07 762.96 1010.46 762.97 1017.78C762.97 1029.77 762.88 1041.76 763 1053.75V1053.77Z" fill="black"/>
<path d="M964.83 673.22C961.76 701.42 947.85 721.74 917.68 729.64C891.94 736.38 866.11 735.81 840.75 727.99C817.91 720.95 802.58 705.62 794.91 682.85C790.29 669.14 788.14 655.03 788.12 640.61C788.06 603.45 788.1 566.3 788.1 529.14H788.07C788.07 492.48 788.01 455.83 788.1 419.17C788.14 402.23 790.49 385.64 796.62 369.73C805.96 345.48 823.16 329.65 848.16 322.9C872.82 316.24 897.6 316.31 922.01 324.45C948.13 333.15 961.24 352.39 964.88 378.84C967.15 395.42 965.62 412.12 965.96 428.76C966.04 432.69 964.01 434.02 960.27 433.75C946.13 432.71 931.96 433.18 917.81 433.45C913.57 433.53 912.24 431.92 912.15 427.96C911.88 415.81 913.09 403.62 911.23 391.52C909.9 382.93 907.12 374.95 900.05 369.31C882.12 355 855.8 363.09 849.13 384.83C844.72 399.22 844.43 414.14 844.36 428.89C844.03 497.04 844.11 565.19 844.3 633.33C844.33 644.8 845.29 656.28 848.69 667.41C853.13 681.95 861.9 688.99 876.98 689.8C890.11 690.5 902.38 682.37 907.51 669.7C910.75 661.69 911.93 653.31 912.11 644.78C912.3 635.95 912.27 627.12 912.16 618.29C912.11 614.03 914.01 612.24 918.17 612.26C932.15 612.31 946.14 612.33 960.12 612.23C964.41 612.2 966.02 614.09 965.99 618.29C965.88 636.61 966.82 654.97 964.83 673.22Z" fill="black"/>
<path d="M1122.3 563.54C1116.26 601.56 1105.78 638.29 1090.93 673.84C1075.49 710.8 1055.87 745.35 1031.8 777.28C994.6 826.62 949.86 867.77 897.07 900.13C844.58 932.32 788.09 953.77 727.5 964.42C705.5 968.29 683.3 970.33 660.95 971.24C609.71 973.33 559.54 967.04 510.29 953.11C442.55 933.93 382.02 901.11 328.47 855.55C292.86 825.25 262.34 790.34 236.84 751.1C200.77 695.59 177.23 635.14 165.63 570C164.117 561.48 167.59 557.22 176.05 557.22H193.05V557.24C200.55 557.24 208.05 557.39 215.55 557.18C219.86 557.06 221.68 558.77 222.48 563.05C228.29 594.11 236.95 624.32 249.37 653.43C265.9 692.16 287.54 727.73 314.44 760.14C342 793.35 373.95 821.53 409.98 845.24C444.48 867.94 481.56 885.08 521.09 896.83C551.04 905.73 581.62 911.36 612.87 913.36C658.43 916.29 703.38 912.93 747.72 901.77C798.7 888.93 845.79 867.53 888.73 837.26C943.25 798.83 986.75 750.44 1018.87 691.85C1041.02 651.44 1056.3 608.67 1064.34 563.32C1065.12 558.93 1067 557.09 1071.6 557.15C1086.76 557.36 1101.93 557.19 1117.09 557.25C1122.58 557.28 1123.18 558.04 1122.3 563.54Z" fill="black"/>
<path d="M235.04 425.27C234.09 442.73 233.21 463.37 224.75 482.76C222.05 488.96 218.47 494.5 213.56 499.13C203.64 508.46 189.09 508.33 179.38 498.82C168.86 488.52 164.66 475.18 162.24 461.27C154.31 415.66 160.28 371.39 175.77 328.14C180.66 314.48 186.48 301.22 193.44 288.49C194.27 286.97 194.56 284.48 196.75 284.57C198.76 284.66 199.35 286.98 200.18 288.53C214.98 316.39 225.27 345.84 230.83 376.9C233.51 391.83 235.03 406.89 235.04 425.27Z" fill="black"/>
<path d="M496.94 633.07C496.89 647.91 495.4 662.64 491.39 677.05C484.2 702.91 468.61 720.81 442.46 728.43C415.91 736.17 389.16 736.31 362.66 728.37C337.42 720.82 323.93 702.73 320.32 677.28C317.48 657.27 319.45 637.02 319.12 616.88C319.07 613.78 320.69 612.28 323.74 612.3C338.23 612.39 352.72 612.55 367.21 612.54C371.29 612.54 372.15 614.6 372.19 618.19C372.33 630.17 371.44 642.18 373.02 654.13C374.39 664.42 377.3 674.06 385 681.51C400.33 696.35 426.17 690.91 434.29 671.29C439.39 658.98 439.94 645.96 439.96 632.99C440.11 532.87 440.05 432.74 440.05 332.61C440.05 325.57 443.643 322.047 450.83 322.04C463.66 322.03 476.49 322.02 489.31 322.04C496.55 322.06 496.97 322.45 496.97 329.69C496.99 381.17 496.97 432.65 496.97 484.13H496.99C496.99 533.78 497.09 583.43 496.93 633.07H496.94Z" fill="black"/>
<path d="M738.92 410.36C738.33 395.21 736.28 380.2 731.51 365.64C724.5 344.23 709.84 331.44 688.23 326.25C675.54 323.19 662.61 322.04 649.58 322.04C619.25 322.04 588.93 322.04 558.61 322.09C550.23 322.09 550.17 322.19 550.17 330.4V721.76C550.17 723.43 550.21 725.1 550.21 726.76C550.21 728.96 551.17 730.14 553.49 730.23C558.15 730.42 562.8 730.92 567.46 730.93C589.11 731.01 610.78 731.31 632.43 730.85C648.39 730.52 664.38 729.62 680.03 725.81C703.25 720.14 720.14 707.2 729.02 684.45C737.11 663.76 739.73 642.03 739.83 620.22C740.15 550.27 741.61 480.29 738.92 410.36ZM683.94 592.55C684 610.2 683.4 627.86 680.18 645.29C679 651.7 677.24 657.93 674.02 663.69C669.15 672.42 662.18 678.42 652.32 680.74C638.69 683.95 624.83 683.03 611.02 682.95C608.44 682.93 607.05 681.48 607.04 678.83C607.04 677.17 606.99 675.5 606.99 673.84V526.39C606.98 476.91 606.98 427.43 606.99 377.95C606.99 369.34 607.09 369.2 615.59 369.24C628.4 369.31 641.21 369.18 653.8 372.38C666.64 375.65 674.46 383.9 678.55 396.13C681.8 405.87 682.8 416 683.16 426.15C685.09 481.61 683.74 537.09 683.94 592.55Z" fill="black"/>
<path d="M681.12 160.93C681.22 180.99 679.87 199.21 674.27 216.88C671.78 224.73 668.12 231.95 662.77 238.31C652.17 250.92 635.02 251.18 624 238.9C615.79 229.75 611.88 218.62 609.52 206.96C601.67 168.29 604.78 130.09 615.25 92.2996C621.01 71.5196 628.89 51.5596 638.81 32.4296C639.98 30.1796 640.61 26.5296 643.46 26.5196C646.09 26.5096 646.52 30.1096 647.63 32.2396C664.54 64.4296 675.22 98.6095 679.74 134.67C680.9 143.91 681.48 153.24 681.12 160.93Z" fill="black"/>
<path d="M683.94 592.55C684 610.2 683.4 627.86 680.18 645.29C679 651.7 677.24 657.93 674.02 663.69C669.15 672.42 662.18 678.42 652.32 680.74C638.69 683.95 624.83 683.03 611.02 682.95C608.44 682.93 607.05 681.48 607.04 678.83C607.04 677.17 606.99 675.5 606.99 673.84V526.39C606.98 476.91 606.98 427.43 606.99 377.95C606.99 369.34 607.09 369.2 615.59 369.24C628.4 369.31 641.21 369.18 653.8 372.38C666.64 375.65 674.46 383.9 678.55 396.13C681.8 405.87 682.8 416 683.16 426.15C685.09 481.61 683.74 537.09 683.94 592.55Z" fill="white"/>
</svg>
