<svg width="1064" height="946" viewBox="0 0 1064 946" fill="none" xmlns="http://www.w3.org/2000/svg">
<path d="M1063.75 852.52C1059.94 863.54 1056.31 874.61 1047.52 883.02C1031.07 898.78 1008.23 899.289 986.48 883.289C986.48 899.449 986.05 914.709 986.64 929.939C986.99 939.069 983.7 941.94 974.69 941.83C952.19 941.55 952.18 941.919 952.19 919.549C952.19 879.239 952.17 838.94 952.21 798.63C952.22 786.3 952.61 785.989 964.99 785.919C967.82 785.899 970.69 786.169 973.49 785.869C981.8 784.969 987.85 786.799 987.12 796.679C990.1 797.249 991.04 795.27 992.36 794.09C1015.14 773.75 1048.62 781.29 1060.05 809.4C1060.91 811.5 1061.84 813.41 1063.75 814.7V852.51V852.52ZM986.55 839.289C986.55 842.429 986.32 845.58 986.59 848.7C987.55 859.91 994.39 867.679 1004.19 868.939C1014.11 870.219 1022.92 864.54 1026.59 854.13C1030.24 843.77 1030.63 833.219 1027.32 822.679C1024.1 812.449 1014.74 807.439 1004.31 810.179C991.58 813.519 986.45 821.849 986.55 839.289Z" fill="black"/>
<path d="M91.7597 945.16C84.5697 938.01 88.3601 929.139 88.2401 920.979C88.1901 917.409 91.5097 918.19 94.0697 918.52C116.22 921.44 128.76 905.509 120.43 884.799C108.92 856.199 97.14 827.72 85.6 799.14C81.6 789.23 82.1997 788.259 92.7997 788.349C124.48 788.619 117.24 784.52 125.99 812.03C131.11 828.15 136.08 844.33 141.83 862.75C148.16 842.49 153.72 824.319 159.55 806.229C161.43 800.389 160.81 792.269 167.05 789.659C175.2 786.239 184.48 787.85 193.19 788.76C198.69 789.33 196.54 793.71 195.36 796.87C187.32 818.4 179.17 839.889 171.13 861.409C166.18 874.669 161.42 888 156.46 901.26C149.43 920.07 139.02 936.14 120.13 945.16H91.7597Z" fill="black"/>
<path d="M223.11 169.72C184.26 135.7 144.58 104.07 92.7901 92.2998C146.34 116.4 187.86 154.75 223.56 202.69C258.63 126.75 313.09 71.6398 389.09 38.6498C324.89 72.4798 274.58 120.07 241.06 188.34C258.57 175.89 275.04 167.9 293.84 165.28C302.03 164.14 310.26 163.5 318.33 164.68C340.47 167.92 362.31 172.8 383.72 179.37C392.82 182.16 393.06 183.82 386.62 190.46C366.7 211 344.23 227.93 315.09 231.58C288.67 234.89 263 228.98 238.6 218.75C231.83 215.91 229.61 216.74 227.4 223.6C204.43 294.93 205.97 365.29 234.08 435.08C250.36 475.48 273.97 510.87 305.3 540.8C355.73 588.98 415.85 616.9 485.49 623.72C551.71 630.21 613.22 615.73 669.91 581.28C680.26 574.99 689.07 566.13 698.45 558.3C700.23 556.81 703.22 555.19 701.89 552.28C700.66 549.58 697.45 550.33 695.05 550.3C671.58 550.1 648.64 554.33 625.9 559.45C584.08 568.88 542.24 578.03 498.99 576.61C470.91 575.69 443.13 571.83 415.71 566.06C383.06 559.2 371.81 541.87 366.11 510.87C365.11 505.43 363.36 501.66 358.95 498.5C350.65 492.54 345.7 483.43 338.82 476.08C334.48 471.44 335.39 464.8 335.83 458.84C336.68 447.55 337.78 436.28 338.88 425.01C339.24 421.39 338.86 418.12 336.16 415.4C332.08 411.3 330.43 405.56 327.01 401.16C316.55 387.71 318.25 373.74 323.9 359.29C324.24 358.41 324.35 357.42 324.78 356.6C332.35 342.34 332.24 330.57 318.21 318.93C309.03 311.32 304.92 299.15 309.33 286.18C310.23 283.52 310.5 280.64 310.95 277.84C314.58 255.34 328.94 242.12 351.82 239.73C368.89 237.95 385.84 239.18 402.56 242.22C418.24 245.07 433.46 246.48 449.26 242.22C460.73 239.13 472.87 238.47 484.7 236.73C488.89 236.11 492.57 234.92 494.46 230.46C501.2 214.62 504.53 198.63 497.38 181.98C493.76 173.57 489.24 165.69 484.08 158.1C466.34 132.02 449.38 105.41 440.31 74.8698C433.76 52.8198 438.01 31.6598 449.94 12.3198C454.97 4.16975 463.51 -0.61025 473.13 0.12975C482.67 0.86975 487.69 8.18975 492.14 16.4298C515.29 59.2398 540.97 99.9298 580.05 130.89C604.5 150.26 632.07 165.41 655.06 186.41C669.14 199.28 679.5 215.68 688.73 232.61C706.37 264.93 729.55 291.62 765.58 304.22C772.53 306.65 774.89 311.54 776.73 318C788.1 358.1 787.58 398.18 775.97 440.33C786.61 423.19 801.81 362.23 801.25 314.5C800.74 271.54 792.28 230.37 779.22 189.78C844.7 285.78 847.6 448.96 740.64 565.91C611.14 707.5 424.04 690.61 334.33 624.33C370.14 637.07 406.72 646.06 445.11 646.88C435.29 643.78 425.34 641.04 415.68 637.52C367.66 620.04 325.43 593.94 289.57 556.89C263.15 529.61 241.53 499.38 226.04 465.1C202.26 412.44 192.97 357.07 198.67 299.27C201.32 272.42 207.58 246.53 216.76 221.3C219.65 213.37 217.61 211.46 209.6 211.69C186.55 212.37 163.54 210.84 141.1 205.52C112.69 198.78 88.2299 183.85 65.6699 165.82C37.8699 143.61 22.0499 113.5 10.8999 80.5298C6.76993 68.3098 3.12004 55.9498 0.520044 43.2598C-0.969956 35.9998 1.02014 33.1297 8.37014 33.8797C52.7001 38.4297 96.28 45.4598 136.96 65.4398C161.9 77.6898 185.15 91.4898 201.48 114.74C213.02 131.17 220.16 149.34 223.1 169.68L223.11 169.72ZM325.89 188.3C297.16 182.13 271.35 187.22 245.6 193.06C239.8 194.37 235.2 196.73 235.71 205.09C264.23 192.15 294.18 191.51 325.89 188.3Z" fill="black"/>
<path d="M786.2 892.56C785.89 892.56 785.57 892.56 785.26 892.56C773.82 892.56 766.633 886.897 763.7 875.57C761.033 865.277 754.523 860.127 744.17 860.12C734.72 860.12 725.26 860.42 715.83 860.03C708.96 859.74 705.75 862.71 703.66 869.08C695.88 892.88 695.7 892.82 670.39 892.57C659.01 892.46 658.85 892.29 662.76 881.5C678.51 838.04 694.4 794.63 710 751.11C712.12 745.19 715.25 742.79 721.64 742.63C752.52 741.87 752.96 741.55 763.41 769.89C777.01 806.76 789.93 843.89 802.89 881C806.86 892.35 806.49 892.49 794.7 892.56C791.87 892.58 789.03 892.56 786.2 892.56ZM732.47 775.6C728.55 788.47 725.13 798.54 722.47 808.82C720.45 816.65 711.79 825.77 717.69 831.8C722.62 836.84 733.83 832.89 742.25 833.24C742.56 833.25 742.88 833.21 743.19 833.21C748.53 833.19 749.43 830.71 747.9 825.9C742.89 810.13 738.17 794.27 732.47 775.6Z" fill="black"/>
<path d="M516.72 885.5C493.95 901.36 474.71 902.64 457.3 889.47C447.15 881.8 443.22 870.54 441.09 858.53C437.67 839.17 440.17 820.84 451.91 804.62C467.08 783.65 493.13 780.35 517.13 797.05C517.13 781.57 517.11 766.95 517.13 752.33C517.15 737.66 517.5 737.28 531.67 737.21C554.37 737.09 551.36 736.74 551.41 757.2C551.52 798.41 551.45 839.62 551.44 880.84C551.44 891.06 546.177 896.173 535.65 896.18C533.76 896.18 531.87 896.06 529.99 896.2C522.44 896.74 515.73 896.2 516.71 885.51L516.72 885.5ZM517.27 841.39C517.27 838.87 517.39 836.35 517.25 833.84C516.6 821.92 510.23 814.59 499.26 813.05C488.98 811.61 480.62 816.99 477 827.88C473.75 837.65 473 847.56 476.52 857.52C479.98 867.32 487.28 872.96 497.11 872.36C506.66 871.77 512.44 865.85 515.73 857.26C517.69 852.14 517.26 846.72 517.27 841.39Z" fill="black"/>
<path d="M855.65 884.279C855.65 899.279 855.66 912.959 855.65 926.629C855.636 936.623 850.577 941.623 840.47 941.629C819.14 941.599 821.43 943.059 821.39 922.109C821.31 880.589 821.59 839.069 821.2 797.559C821.11 788.399 824.27 784.869 833.21 785.839C836.63 786.209 840.14 786.139 843.58 785.849C851.28 785.209 856.9 786.889 855.74 797.839C869.16 785.699 883.11 779.789 899.85 784.019C913.62 787.499 923.68 795.659 928.05 809.249C936.63 835.939 936.22 861.589 915.23 883.039C899.84 898.769 878.47 899.869 860.43 886.959C859.48 886.279 858.4 885.799 855.66 884.269L855.65 884.279ZM897.45 838.319C897.27 834.859 897.39 831.359 896.84 827.959C894.97 816.529 889.22 810.439 879.78 809.479C869.01 808.389 861.19 813.259 857.03 823.939C853.12 833.989 852.91 844.319 856.31 854.459C859.28 863.309 865.67 868.729 875.26 868.909C884.46 869.089 890.55 863.919 894.33 855.859C896.93 850.319 897.47 844.369 897.45 838.319Z" fill="black"/>
<path d="M332.7 852.66C323.89 852.66 315.08 852.82 306.28 852.61C299.1 852.44 298.31 855.7 300.79 861.43C304.51 870 317.23 875.88 329.99 874.37C337.15 873.52 344.34 872.54 351.02 869.43C355.7 867.25 357.85 868.9 358.51 874.03C360.38 888.67 358.07 892.44 343.53 895.98C330.2 899.23 316.64 899.4 303.28 896.77C281.05 892.39 265.97 873.96 265.46 851.26C265.25 842.16 264.87 833.05 267.5 824.1C273.43 803.87 290.56 788.77 311.48 786.62C332.04 784.5 349.69 790.01 360.83 808.88C367.64 820.42 368.33 833.33 367.78 846.36C367.57 851.36 364.31 852.56 360.08 852.56C350.96 852.56 341.84 852.56 332.71 852.56C332.71 852.59 332.71 852.62 332.71 852.65L332.7 852.66ZM315.96 831.45C319.41 831.45 322.86 831.54 326.31 831.43C335.19 831.17 337.45 827.63 333.97 819.58C328.38 806.67 313.16 806.1 303.7 818.44C301.2 821.7 298.13 825.37 299.93 829.38C301.58 833.06 306.11 831.08 309.38 831.42C311.55 831.64 313.77 831.46 315.96 831.45Z" fill="black"/>
<path d="M603.88 898.089C595.03 898.559 587 897.309 578.91 895.689C572.92 894.489 569.92 891.779 570.33 885.599C570.41 884.349 570.31 883.079 570.3 881.819C570.206 871.586 574.943 868.223 584.51 871.729C593.59 875.059 602.85 876.199 612.35 873.879C616.21 872.929 619.61 870.999 620.13 866.639C620.69 862.029 617.24 859.839 613.68 858.379C604.99 854.799 595.81 852.539 587.43 848.029C575.89 841.809 570.39 832.019 570.99 819.439C571.57 807.409 577.15 798.209 588.85 792.749C605.78 784.849 622.97 785.079 640.58 788.979C644.73 789.899 647.46 792.389 647.43 796.799C647.39 802.699 649.33 808.999 646 814.329C644.5 816.729 641.39 814.219 639.07 813.539C630.31 810.969 621.61 807.969 612.28 810.919C608.81 812.019 605.65 813.359 605.03 817.409C604.32 821.999 607.32 824.569 610.89 826.089C618.42 829.289 626.31 831.659 633.72 835.109C650.9 843.109 656.45 855.399 652 873.699C649.66 883.289 642.31 888.149 634.48 892.239C624.78 897.299 614.2 898.939 603.88 898.099V898.089Z" fill="black"/>
<path d="M386.46 817.469C386.46 794.199 386.68 770.929 386.34 747.669C386.23 739.869 389.14 737.069 396.81 737.159C423.28 737.479 420.61 735.019 420.66 759.989C420.74 800.859 420.7 841.739 420.66 882.609C420.66 895.819 420.36 896.059 407.75 896.139C393.543 896.226 386.44 889.179 386.44 874.999C386.44 855.819 386.44 836.639 386.44 817.459L386.46 817.469Z" fill="black"/>
<path d="M244.85 843.05C244.85 857.2 244.52 871.36 244.97 885.49C245.23 893.82 241.89 896.44 233.84 896.27C206.98 895.7 210.92 899.13 210.71 873.2C210.51 848.36 210.86 823.52 210.51 798.69C210.4 790.89 213.28 788.1 220.97 788.2C247.59 788.53 244.72 786.09 244.85 810.98C244.9 821.67 244.85 832.36 244.85 843.05Z" fill="black"/>
<path d="M227.5 738.86C239.11 738.79 247.01 745.79 246.86 756.04C246.73 765.59 238.38 773.09 227.89 773.08C217.2 773.08 209.02 765.9 208.78 756.33C208.51 745.34 215.36 738.95 227.49 738.87L227.5 738.86Z" fill="black"/>
</svg>
