<svg width="1932" height="2017" viewBox="0 0 1932 2017" fill="none" xmlns="http://www.w3.org/2000/svg">
<path d="M1932 44.6262V1972.37C1932 1997.02 1910.32 2017 1883.58 2017H48.4183C21.6798 2017 0 1997.02 0 1972.37V1490.57C0 1476.06 5.4966 1461.99 15.5482 1450.81L77.7189 1381.66C87.6609 1370.6 93.1137 1356.67 93.1137 1342.32V660.089C93.1137 643.699 86.0404 627.996 73.4486 616.431L19.8622 567.163C7.13901 555.476 0 539.592 0 523.041V44.6262C0 19.9819 21.6798 0 48.4183 0H1883.58C1910.32 0 1932 19.9819 1932 44.6262Z" fill="#212121"/>
</svg>
